<svg id="svg" version="1.1" xmlns="http://www.w3.org/2000/svg" xmlns:xlink="http://www.w3.org/1999/xlink" width="400" height="400" viewBox="0, 0, 400,400"><g id="svgg"><path id="path0" d="M314.708 14.063 C 314.166 14.707,313.535 15.234,313.306 15.234 C 313.078 15.234,312.891 15.421,312.891 15.648 C 312.891 15.876,312.715 15.953,312.500 15.820 C 312.285 15.688,312.109 15.853,312.109 16.188 C 312.109 16.523,311.901 16.797,311.647 16.797 C 311.201 16.797,306.014 21.957,303.063 25.337 C 302.113 26.425,301.557 26.806,301.403 26.475 C 301.223 26.087,301.116 26.100,300.921 26.533 C 300.784 26.838,298.218 29.475,295.219 32.392 C 286.659 40.719,271.585 55.812,263.672 63.978 C 257.216 70.641,255.192 72.518,256.107 70.996 C 256.306 70.664,256.188 70.680,255.739 71.044 C 254.990 71.651,254.845 72.065,255.529 71.642 C 255.809 71.470,255.874 71.535,255.701 71.815 C 255.548 72.063,255.161 72.266,254.842 72.266 C 254.115 72.266,252.344 74.002,252.344 74.714 C 252.344 75.006,251.816 75.750,251.172 76.367 C 250.527 76.985,250.000 77.399,250.000 77.287 C 250.000 77.043,240.805 86.354,237.840 89.602 C 233.776 94.051,225.942 101.808,225.239 102.077 C 224.811 102.242,224.618 102.584,224.754 102.939 C 224.893 103.301,224.508 103.939,223.754 104.596 C 223.080 105.183,221.771 106.411,220.845 107.324 C 219.919 108.237,218.981 108.984,218.760 108.984 C 218.540 108.984,218.359 109.309,218.359 109.706 C 218.359 110.538,215.809 113.320,215.390 112.946 C 215.235 112.808,215.235 112.914,215.388 113.180 C 215.550 113.462,215.249 114.083,214.669 114.663 C 214.121 115.212,213.672 115.918,213.672 116.233 C 213.672 116.547,213.320 117.106,212.891 117.473 C 212.461 117.841,212.109 118.367,212.109 118.642 C 212.109 118.916,211.934 119.141,211.719 119.141 C 211.504 119.141,211.328 119.371,211.328 119.653 C 211.328 119.935,210.977 120.893,210.547 121.783 C 210.117 122.672,209.766 123.672,209.766 124.005 C 209.766 124.337,209.658 124.609,209.527 124.609 C 208.927 124.609,198.046 113.259,198.041 112.627 C 198.036 112.024,197.977 112.004,197.656 112.500 C 197.350 112.974,197.276 112.918,197.272 112.207 C 197.268 111.650,197.028 111.328,196.615 111.328 C 196.257 111.328,196.068 111.224,196.195 111.097 C 196.322 110.970,192.924 107.369,188.643 103.096 C 184.362 98.823,180.857 95.016,180.853 94.636 C 180.849 94.124,180.764 94.076,180.526 94.452 C 180.269 94.857,180.104 94.837,179.703 94.354 C 179.355 93.935,179.337 93.750,179.647 93.750 C 179.892 93.750,175.519 89.189,169.929 83.615 C 164.339 78.042,159.766 73.285,159.766 73.046 C 159.766 72.806,159.590 72.719,159.375 72.852 C 159.160 72.984,158.984 72.819,158.984 72.485 C 158.984 72.150,155.862 68.756,152.046 64.942 C 148.229 61.128,144.671 57.393,144.139 56.641 C 143.607 55.889,139.522 51.637,135.062 47.193 C 130.511 42.658,126.951 38.802,126.947 38.404 C 126.942 37.848,126.868 37.811,126.599 38.235 C 126.332 38.658,126.198 38.589,125.986 37.919 C 125.674 36.937,115.868 26.953,115.214 26.953 C 114.977 26.953,114.107 26.250,113.281 25.391 C 112.456 24.531,111.590 23.828,111.359 23.828 C 111.127 23.828,110.938 23.652,110.938 23.438 C 110.938 23.223,110.754 23.047,110.531 23.047 C 110.307 23.047,109.746 22.695,109.285 22.266 C 108.824 21.836,108.216 21.484,107.934 21.484 C 107.652 21.484,107.422 21.309,107.422 21.094 C 107.422 20.879,107.070 20.703,106.641 20.703 C 106.211 20.703,105.859 20.527,105.859 20.313 C 105.859 20.098,105.322 19.922,104.664 19.922 C 103.967 19.922,103.570 19.759,103.711 19.531 C 103.865 19.282,102.666 19.141,100.391 19.141 C 98.116 19.141,96.916 19.282,97.070 19.531 C 97.207 19.753,96.879 19.922,96.312 19.922 C 95.762 19.922,95.313 20.098,95.313 20.313 C 95.313 20.527,94.971 20.703,94.554 20.703 C 94.137 20.703,93.687 20.879,93.555 21.094 C 93.422 21.309,93.011 21.484,92.641 21.484 C 92.272 21.484,91.716 21.836,91.406 22.266 C 91.097 22.695,90.618 23.047,90.344 23.047 C 90.069 23.047,89.120 23.750,88.235 24.609 C 87.349 25.469,86.467 26.172,86.274 26.172 C 85.419 26.172,80.859 31.265,80.859 32.219 C 80.859 32.760,81.035 33.203,81.250 33.203 C 81.465 33.203,81.641 33.555,81.641 33.984 C 81.641 34.414,81.816 34.766,82.031 34.766 C 82.246 34.766,82.422 35.117,82.422 35.547 C 82.422 35.977,82.598 36.328,82.813 36.328 C 83.027 36.328,83.203 36.690,83.203 37.132 C 83.203 37.575,83.379 37.828,83.594 37.695 C 83.809 37.563,83.984 37.728,83.984 38.063 C 83.984 38.398,84.160 38.672,84.375 38.672 C 84.590 38.672,84.766 39.034,84.766 39.476 C 84.766 39.919,84.941 40.172,85.156 40.039 C 85.371 39.906,85.547 40.033,85.547 40.320 C 85.547 40.608,85.898 41.097,86.328 41.406 C 86.758 41.716,87.109 42.272,87.109 42.642 C 87.109 43.012,87.429 43.545,87.819 43.826 C 88.209 44.106,88.658 44.683,88.817 45.108 C 89.083 45.819,89.032 45.811,88.180 45.010 C 87.671 44.532,86.948 44.141,86.573 44.141 C 86.198 44.141,86.000 43.965,86.133 43.750 C 86.266 43.535,86.100 43.359,85.765 43.359 C 85.430 43.359,85.156 43.184,85.156 42.969 C 85.156 42.754,84.805 42.578,84.375 42.578 C 83.945 42.578,83.594 42.402,83.594 42.188 C 83.594 41.973,83.189 41.797,82.695 41.797 C 81.666 41.797,79.695 42.630,79.691 43.066 C 79.689 43.228,79.436 43.359,79.128 43.359 C 78.820 43.359,78.457 43.711,78.320 44.141 C 78.066 44.942,77.344 45.231,77.344 44.531 C 77.344 44.316,76.894 44.141,76.344 44.141 C 75.777 44.141,75.449 43.972,75.586 43.750 C 75.719 43.535,75.624 43.359,75.375 43.359 C 75.126 43.359,74.430 42.832,73.828 42.188 C 73.226 41.543,72.365 41.016,71.914 41.016 C 71.463 41.016,71.094 40.840,71.094 40.625 C 71.094 39.891,70.236 40.234,69.141 41.406 C 68.539 42.051,67.755 42.578,67.398 42.578 C 67.042 42.578,66.859 42.754,66.992 42.969 C 67.125 43.184,66.998 43.359,66.711 43.359 C 66.423 43.359,65.935 43.711,65.625 44.141 C 65.315 44.570,64.837 44.922,64.562 44.922 C 64.287 44.922,64.063 45.098,64.063 45.313 C 64.063 45.527,63.838 45.703,63.563 45.703 C 63.288 45.703,62.810 46.055,62.500 46.484 C 62.190 46.914,61.712 47.266,61.437 47.266 C 61.162 47.266,60.938 47.441,60.938 47.656 C 60.938 47.871,60.713 48.047,60.438 48.047 C 60.163 48.047,59.685 48.398,59.375 48.828 C 59.065 49.258,58.587 49.609,58.312 49.609 C 58.037 49.609,57.813 49.785,57.813 50.000 C 57.813 50.215,57.588 50.391,57.313 50.391 C 57.038 50.391,56.560 50.742,56.250 51.172 C 55.940 51.602,55.437 51.953,55.132 51.953 C 54.827 51.953,54.073 52.480,53.457 53.125 C 52.841 53.770,52.090 54.297,51.789 54.297 C 51.488 54.297,50.798 54.824,50.255 55.469 C 49.713 56.113,49.037 56.641,48.753 56.641 C 48.469 56.641,47.672 57.256,46.982 58.008 C 46.292 58.760,45.500 59.375,45.223 59.375 C 44.946 59.375,44.193 59.986,43.551 60.734 C 42.908 61.481,42.146 62.096,41.856 62.101 C 41.566 62.106,40.836 62.637,40.234 63.281 C 39.632 63.926,38.929 64.453,38.672 64.453 C 38.415 64.453,37.711 64.980,37.109 65.625 C 36.507 66.270,35.804 66.797,35.547 66.797 C 35.290 66.797,34.586 67.324,33.984 67.969 C 33.382 68.613,32.689 69.141,32.443 69.141 C 30.647 69.141,29.498 72.401,30.859 73.633 C 31.289 74.022,31.646 74.620,31.651 74.963 C 31.657 75.306,32.180 76.094,32.813 76.715 C 33.445 77.335,33.885 77.969,33.790 78.123 C 33.696 78.276,34.052 78.810,34.582 79.308 C 35.113 79.807,35.547 80.450,35.547 80.738 C 35.547 81.026,36.118 81.771,36.816 82.395 C 37.514 83.019,37.963 83.652,37.813 83.801 C 37.664 83.951,35.251 81.768,32.451 78.951 C 27.555 74.023,25.000 72.400,25.000 74.219 C 25.000 74.434,24.736 74.609,24.414 74.609 C 24.092 74.609,23.828 74.785,23.828 75.000 C 23.828 75.215,23.564 75.391,23.242 75.391 C 22.920 75.391,22.656 75.566,22.656 75.781 C 22.656 75.996,22.343 76.172,21.961 76.172 C 21.579 76.172,21.013 76.523,20.703 76.953 C 20.393 77.383,19.905 77.734,19.619 77.734 C 18.968 77.734,14.453 82.111,14.453 82.741 C 14.453 82.995,14.277 83.203,14.063 83.203 C 13.534 83.203,13.562 86.226,14.092 86.403 C 14.556 86.558,9.984 91.211,9.367 91.211 C 9.155 91.211,8.559 91.703,8.042 92.305 C 7.412 93.038,7.010 93.250,6.822 92.947 C 6.294 92.091,5.872 93.484,5.865 96.105 C 5.860 98.212,5.995 98.754,6.641 99.219 C 7.070 99.528,7.422 100.056,7.422 100.391 C 7.422 100.725,7.773 101.253,8.203 101.563 C 8.633 101.872,8.984 102.368,8.984 102.664 C 8.984 102.960,9.512 103.695,10.156 104.297 C 10.801 104.899,11.328 105.683,11.328 106.039 C 11.328 106.395,11.504 106.578,11.719 106.445 C 11.934 106.313,12.109 106.398,12.109 106.635 C 12.109 106.873,12.505 107.471,12.988 107.966 C 15.351 110.383,16.856 112.181,16.671 112.365 C 16.558 112.478,17.626 113.653,19.044 114.977 C 25.362 120.873,32.422 128.165,32.428 128.799 C 32.433 129.389,32.490 129.405,32.812 128.906 C 33.139 128.401,33.192 128.411,33.197 128.980 C 33.203 129.595,43.820 140.709,51.728 148.378 C 53.645 150.237,61.064 157.646,68.214 164.844 C 75.364 172.041,82.452 179.160,83.966 180.664 C 88.363 185.033,113.823 210.481,116.709 213.392 C 118.154 214.850,123.172 219.816,127.861 224.428 L 136.387 232.814 127.916 241.114 C 123.257 245.679,117.663 251.236,115.484 253.463 C 110.195 258.870,89.733 279.320,84.905 284.024 C 78.628 290.139,70.777 298.382,71.009 298.613 C 71.127 298.731,71.006 298.828,70.740 298.828 C 70.176 298.828,69.379 299.612,69.237 300.307 C 69.182 300.574,65.886 304.042,61.912 308.015 C 57.939 311.987,54.688 315.413,54.688 315.627 C 54.688 315.841,54.501 316.016,54.274 316.016 C 54.046 316.016,53.986 315.813,54.139 315.565 C 54.308 315.292,54.246 315.219,53.984 315.382 C 53.745 315.529,53.632 315.865,53.733 316.127 C 53.833 316.389,52.595 317.907,50.981 319.501 C 49.367 321.094,48.047 322.631,48.047 322.917 C 48.047 323.203,47.871 323.438,47.656 323.438 C 47.441 323.438,47.266 323.631,47.266 323.867 C 47.266 324.103,46.738 324.789,46.094 325.391 C 45.373 326.064,44.922 326.876,44.922 327.500 C 44.922 328.059,44.746 328.516,44.531 328.516 C 44.316 328.516,44.141 328.867,44.141 329.297 C 44.141 329.727,43.965 330.078,43.750 330.078 C 43.535 330.078,43.359 330.957,43.359 332.031 C 43.359 333.105,43.184 333.984,42.969 333.984 C 42.748 333.984,42.578 335.091,42.578 336.523 C 42.578 337.956,42.748 339.063,42.969 339.063 C 43.184 339.063,43.359 339.941,43.359 341.016 C 43.359 342.090,43.535 342.969,43.750 342.969 C 43.965 342.969,44.141 343.411,44.141 343.951 C 44.141 344.834,44.765 346.364,45.335 346.875 C 45.454 346.982,45.783 347.642,46.066 348.340 C 46.348 349.038,46.734 349.609,46.922 349.609 C 47.111 349.609,47.266 349.830,47.266 350.100 C 47.266 350.780,51.819 355.078,52.539 355.078 C 52.862 355.078,53.125 355.254,53.125 355.469 C 53.125 355.684,53.466 355.859,53.883 355.859 C 54.300 355.859,54.750 356.035,54.883 356.250 C 55.016 356.465,55.465 356.641,55.882 356.641 C 56.299 356.641,56.641 356.816,56.641 357.031 C 56.641 357.246,57.080 357.422,57.617 357.422 C 58.154 357.422,58.594 357.598,58.594 357.813 C 58.594 358.027,59.209 358.203,59.961 358.203 C 60.713 358.203,61.328 358.379,61.328 358.594 C 61.328 358.840,64.056 358.984,68.731 358.984 L 76.133 358.984 83.477 351.608 C 87.516 347.552,95.068 339.949,100.259 334.714 C 105.450 329.479,112.601 322.390,116.149 318.960 C 119.697 315.531,122.514 312.587,122.410 312.417 C 122.305 312.248,122.523 312.109,122.894 312.109 C 123.264 312.109,123.470 312.011,123.350 311.892 C 123.230 311.772,126.453 308.344,130.512 304.274 C 134.570 300.204,137.891 296.693,137.891 296.472 C 137.891 296.250,138.198 295.951,138.573 295.807 C 139.493 295.454,141.016 293.899,141.016 293.312 C 141.016 293.052,141.130 292.952,141.269 293.092 C 141.408 293.231,142.463 292.381,143.612 291.203 C 144.762 290.026,145.703 289.156,145.703 289.271 C 145.703 289.386,146.119 289.079,146.628 288.588 C 147.137 288.097,147.478 287.563,147.386 287.402 C 147.295 287.241,147.418 287.109,147.661 287.109 C 148.257 287.109,149.242 286.091,148.940 285.789 C 148.807 285.656,148.960 285.547,149.281 285.547 C 149.601 285.547,150.277 285.107,150.781 284.570 C 151.286 284.033,151.573 283.594,151.420 283.594 C 150.970 283.594,152.616 281.968,153.549 281.492 C 154.019 281.251,154.412 280.879,154.420 280.664 C 154.442 280.129,155.315 279.297,155.855 279.297 C 156.097 279.297,156.187 279.121,156.055 278.906 C 155.922 278.691,156.117 278.516,156.487 278.516 C 156.858 278.516,157.051 278.405,156.917 278.271 C 156.782 278.136,159.272 275.439,162.451 272.276 C 165.629 269.114,168.350 266.212,168.498 265.828 C 168.715 265.263,169.938 266.343,174.910 271.489 C 178.290 274.988,182.609 279.362,184.508 281.210 C 186.408 283.058,193.837 290.459,201.018 297.656 C 208.198 304.854,215.305 311.973,216.810 313.477 C 218.315 314.980,226.044 322.715,233.985 330.664 C 241.926 338.613,249.308 345.996,250.389 347.070 C 261.496 358.102,279.004 375.623,283.331 380.037 C 289.794 386.629,289.568 386.565,293.191 382.813 C 294.643 381.309,295.988 380.078,296.179 380.078 C 296.370 380.078,297.089 379.552,297.775 378.908 C 298.690 378.051,299.405 377.738,300.451 377.736 C 301.906 377.734,304.662 376.527,306.030 375.293 C 306.447 374.917,307.018 374.609,307.300 374.609 C 307.582 374.609,307.813 374.434,307.813 374.219 C 307.813 374.004,308.076 373.828,308.398 373.828 C 308.721 373.828,308.984 373.682,308.984 373.504 C 308.984 373.325,309.468 372.929,310.059 372.625 C 310.649 372.320,311.599 371.587,312.168 370.996 C 312.738 370.405,313.322 369.922,313.466 369.922 C 313.610 369.922,313.959 369.702,314.242 369.434 C 315.357 368.376,316.431 367.578,316.741 367.578 C 316.920 367.578,317.385 367.227,317.773 366.797 C 318.162 366.367,318.717 366.016,319.006 366.016 C 319.295 366.016,319.531 365.840,319.531 365.625 C 319.531 365.410,319.753 365.234,320.023 365.234 C 320.294 365.234,320.735 364.883,321.003 364.453 C 321.271 364.023,321.753 363.672,322.074 363.672 C 322.394 363.672,322.656 363.496,322.656 363.281 C 322.656 363.066,322.881 362.891,323.156 362.891 C 323.431 362.891,323.909 362.539,324.219 362.109 C 324.528 361.680,325.105 361.328,325.500 361.328 C 325.895 361.328,326.109 361.152,325.977 360.937 C 325.844 360.723,325.970 360.547,326.258 360.547 C 326.545 360.547,327.034 360.195,327.344 359.766 C 327.653 359.336,328.230 358.984,328.625 358.984 C 329.020 358.984,329.234 358.809,329.102 358.594 C 328.969 358.379,329.048 358.203,329.277 358.203 C 329.507 358.203,330.246 357.676,330.921 357.031 C 331.595 356.387,332.314 355.859,332.518 355.859 C 332.723 355.859,333.382 355.332,333.984 354.687 C 334.586 354.043,335.290 353.516,335.547 353.516 C 335.804 353.516,336.481 353.020,337.050 352.415 C 337.620 351.810,338.659 351.063,339.360 350.755 C 341.008 350.032,341.666 347.266,340.190 347.266 C 339.664 347.266,337.891 345.448,337.891 344.909 C 337.891 344.668,337.188 343.794,336.328 342.969 C 335.469 342.143,334.766 341.267,334.766 341.021 C 334.766 340.775,333.866 339.698,332.767 338.627 C 331.667 337.556,330.863 336.585,330.980 336.468 C 331.097 336.351,332.216 337.238,333.467 338.438 C 334.719 339.639,335.882 340.754,336.053 340.916 C 336.224 341.078,336.927 341.844,337.616 342.618 C 338.304 343.392,339.043 344.027,339.258 344.029 C 339.473 344.031,339.866 344.453,340.131 344.966 C 340.396 345.479,340.616 345.766,340.619 345.603 C 340.627 345.220,349.609 354.392,349.609 354.782 C 349.609 355.865,351.705 354.833,353.760 352.740 C 355.022 351.454,356.285 350.399,356.566 350.396 C 356.847 350.393,356.977 350.227,356.853 350.028 C 356.730 349.829,356.951 349.564,357.344 349.439 C 357.737 349.314,359.805 347.356,361.939 345.088 C 366.905 339.812,373.279 333.429,379.268 327.734 C 381.867 325.264,383.930 323.066,383.853 322.852 C 383.776 322.637,384.466 321.846,385.387 321.094 C 386.981 319.793,387.820 317.578,386.719 317.578 C 386.504 317.578,386.328 316.963,386.328 316.211 C 386.328 315.459,386.152 314.844,385.938 314.844 C 385.723 314.844,385.547 314.053,385.547 313.086 C 385.547 311.943,385.376 311.326,385.059 311.322 C 384.733 311.318,384.766 311.190,385.156 310.938 C 385.547 310.685,385.579 310.557,385.254 310.553 C 384.946 310.549,384.766 309.971,384.766 308.984 C 384.766 308.125,384.590 307.422,384.375 307.422 C 384.160 307.422,383.984 307.184,383.984 306.892 C 383.984 306.601,382.756 305.151,381.255 303.670 C 379.753 302.188,378.523 300.842,378.520 300.677 C 378.518 300.512,375.747 297.588,372.363 294.180 C 359.837 281.560,357.422 279.037,357.422 278.563 C 357.422 278.297,357.246 278.188,357.031 278.320 C 356.816 278.453,356.641 278.303,356.641 277.987 C 356.641 277.376,355.609 276.301,345.963 266.864 C 342.598 263.571,339.844 260.704,339.844 260.494 C 339.844 260.283,339.660 260.224,339.436 260.362 C 339.012 260.624,337.891 259.899,337.891 259.364 C 337.891 259.195,338.286 259.131,338.770 259.221 C 339.262 259.312,339.396 259.269,339.074 259.123 C 338.759 258.979,336.649 256.932,334.387 254.573 C 326.344 246.188,319.561 239.453,319.159 239.453 C 318.934 239.453,318.750 239.304,318.750 239.122 C 318.750 238.940,318.402 238.390,317.977 237.900 C 317.552 237.410,317.298 236.855,317.414 236.668 C 317.530 236.481,317.476 236.328,317.296 236.328 C 316.849 236.328,297.542 216.992,297.279 216.281 C 297.019 215.578,295.460 213.952,286.035 204.551 C 281.899 200.426,278.516 196.748,278.516 196.377 C 278.516 196.006,278.329 195.703,278.102 195.703 C 277.874 195.703,277.814 195.906,277.967 196.154 C 278.136 196.427,278.075 196.499,277.812 196.337 C 277.573 196.189,277.455 195.855,277.549 195.593 C 277.643 195.331,277.004 194.590,276.128 193.945 L 274.537 192.773 275.940 192.652 C 276.712 192.586,277.344 192.366,277.344 192.164 C 277.344 191.962,277.871 191.797,278.516 191.797 C 279.160 191.797,279.688 191.621,279.688 191.406 C 279.688 191.191,279.918 191.016,280.200 191.016 C 280.482 191.016,281.089 190.664,281.551 190.234 C 282.012 189.805,282.660 189.453,282.991 189.453 C 283.323 189.453,283.594 189.277,283.594 189.063 C 283.594 188.848,283.944 188.672,284.372 188.672 C 284.800 188.672,285.369 188.320,285.638 187.891 C 285.906 187.461,286.445 187.109,286.836 187.109 C 287.226 187.109,287.437 186.934,287.305 186.719 C 287.172 186.504,287.304 186.328,287.599 186.328 C 287.894 186.328,288.640 185.801,289.258 185.156 C 289.875 184.512,290.699 183.984,291.089 183.984 C 291.478 183.984,291.797 183.846,291.797 183.677 C 291.797 183.508,292.808 182.377,294.043 181.164 C 297.158 178.105,297.656 177.650,297.656 177.871 C 297.656 178.044,309.946 165.804,311.977 163.608 C 312.441 163.106,314.083 161.553,315.627 160.156 C 317.170 158.760,318.667 157.397,318.954 157.129 C 319.241 156.860,319.796 156.638,320.187 156.635 C 320.664 156.631,320.744 156.530,320.430 156.331 C 320.118 156.133,320.355 155.859,321.136 155.513 C 321.782 155.227,322.221 154.903,322.111 154.794 C 321.910 154.593,322.820 153.516,323.191 153.516 C 323.301 153.516,324.939 151.909,326.832 149.945 C 328.725 147.981,332.605 143.984,335.455 141.063 C 338.306 138.142,340.552 135.530,340.448 135.259 C 340.344 134.988,340.527 134.766,340.856 134.766 C 341.207 134.766,341.338 134.951,341.174 135.217 C 340.997 135.503,341.067 135.561,341.367 135.376 C 341.626 135.216,341.773 134.890,341.694 134.651 C 341.529 134.158,346.247 129.297,346.891 129.297 C 347.122 129.297,347.209 129.130,347.082 128.926 C 346.816 128.495,348.213 127.640,348.581 128.009 C 348.717 128.144,348.828 127.962,348.828 127.604 C 348.828 127.246,349.071 126.953,349.369 126.953 C 349.666 126.953,350.005 126.584,350.123 126.133 C 350.241 125.681,350.506 125.416,350.711 125.542 C 350.916 125.669,351.323 125.477,351.616 125.116 C 352.074 124.552,352.066 124.505,351.563 124.781 C 351.240 124.958,351.416 124.663,351.953 124.125 C 352.490 123.587,353.089 123.240,353.283 123.353 C 353.477 123.466,353.520 123.371,353.379 123.141 C 353.237 122.912,354.294 121.611,355.727 120.249 C 357.160 118.887,358.611 117.444,358.951 117.042 C 359.292 116.640,359.797 116.112,360.074 115.870 C 360.351 115.628,361.318 114.641,362.223 113.676 C 366.818 108.777,380.066 95.703,380.435 95.703 C 380.668 95.703,380.859 95.378,380.859 94.981 C 380.859 94.584,381.914 93.254,383.203 92.024 C 384.492 90.794,385.547 89.539,385.547 89.233 C 385.547 88.928,385.898 88.459,386.328 88.191 C 386.758 87.922,387.109 87.393,387.109 87.015 C 387.109 86.637,387.285 86.328,387.500 86.328 C 388.312 86.328,387.963 81.084,387.109 80.469 C 386.680 80.159,386.328 79.708,386.328 79.466 C 386.328 78.844,385.016 77.734,384.279 77.734 C 383.938 77.734,383.586 77.517,383.498 77.251 C 383.369 76.866,383.119 76.866,382.275 77.251 C 381.691 77.517,380.812 77.734,380.321 77.734 C 379.241 77.734,375.695 79.471,376.050 79.826 C 376.188 79.965,376.036 80.078,375.712 80.078 C 375.387 80.078,374.803 80.430,374.414 80.859 C 374.025 81.289,373.515 81.649,373.279 81.660 C 373.044 81.670,372.148 82.372,371.289 83.220 C 370.430 84.067,369.532 84.761,369.295 84.763 C 369.058 84.764,367.177 86.523,365.116 88.672 C 363.054 90.820,361.183 92.578,360.957 92.578 C 360.732 92.578,360.547 92.930,360.547 93.359 C 360.547 93.789,360.371 94.141,360.156 94.141 C 359.941 94.141,359.766 93.928,359.766 93.668 C 359.766 93.408,357.285 95.649,354.254 98.648 C 339.509 113.238,335.547 117.260,335.547 117.640 C 335.547 117.867,335.274 117.948,334.941 117.820 C 334.593 117.686,334.436 117.752,334.573 117.973 C 334.704 118.186,334.602 118.359,334.347 118.359 C 334.091 118.359,329.843 122.358,324.907 127.246 C 319.971 132.134,313.754 138.284,311.091 140.914 C 308.428 143.543,306.250 145.872,306.250 146.089 C 306.250 146.307,306.066 146.484,305.842 146.484 C 305.272 146.484,303.510 144.667,303.800 144.377 C 303.930 144.247,303.743 144.141,303.385 144.141 C 302.995 144.141,302.734 143.828,302.734 143.359 C 302.734 142.912,302.474 142.578,302.125 142.578 C 301.790 142.578,301.625 142.402,301.758 142.188 C 301.891 141.973,301.715 141.797,301.367 141.797 C 301.020 141.797,300.844 141.621,300.977 141.406 C 301.109 141.191,300.934 141.016,300.586 141.016 C 300.238 141.016,300.063 140.840,300.195 140.625 C 300.328 140.410,300.152 140.234,299.805 140.234 C 299.457 140.234,299.281 140.059,299.414 139.844 C 299.547 139.629,299.352 139.453,298.981 139.453 C 298.611 139.453,298.421 139.339,298.561 139.200 C 298.700 139.060,298.450 138.631,298.005 138.245 C 297.201 137.547,297.222 137.517,301.137 133.629 C 303.304 131.476,305.078 129.547,305.078 129.343 C 305.078 129.139,305.251 128.913,305.462 128.841 C 306.657 128.436,322.709 112.901,322.419 112.431 C 322.309 112.254,322.523 112.109,322.894 112.109 C 323.264 112.109,323.463 112.005,323.336 111.878 C 323.209 111.750,326.211 108.539,330.009 104.742 C 333.807 100.945,337.163 97.358,337.468 96.771 C 337.773 96.184,338.215 95.703,338.449 95.703 C 338.684 95.703,339.311 95.176,339.844 94.531 C 340.376 93.887,340.940 93.359,341.096 93.359 C 341.627 93.359,344.531 90.464,344.531 89.934 C 344.531 89.644,344.707 89.516,344.922 89.648 C 345.137 89.781,345.313 89.616,345.313 89.281 C 345.313 88.946,345.499 88.672,345.726 88.672 C 345.954 88.672,346.014 88.875,345.861 89.123 C 345.687 89.405,345.754 89.468,346.040 89.291 C 346.291 89.136,346.401 88.852,346.283 88.662 C 346.165 88.471,348.755 85.616,352.038 82.316 C 358.515 75.808,362.109 71.901,362.109 71.370 C 362.109 71.184,362.813 70.357,363.672 69.531 C 364.531 68.706,365.234 67.791,365.234 67.500 C 365.234 67.208,365.586 66.716,366.016 66.406 C 366.827 65.821,367.234 60.547,366.468 60.547 C 366.287 60.547,365.731 59.755,365.233 58.786 C 364.167 56.713,360.938 54.807,360.938 56.250 C 360.938 56.465,360.503 56.641,359.973 56.641 C 359.442 56.641,358.412 56.976,357.683 57.385 C 356.954 57.795,355.942 58.366,355.435 58.655 C 354.928 58.943,354.042 59.663,353.467 60.254 C 352.892 60.845,352.184 61.332,351.894 61.337 C 351.604 61.342,350.762 62.045,350.023 62.899 C 349.284 63.754,348.454 64.453,348.179 64.453 C 347.903 64.453,345.743 66.387,343.377 68.750 C 341.011 71.113,338.798 73.047,338.460 73.047 C 338.121 73.047,337.953 73.223,338.086 73.438 C 338.219 73.652,338.043 73.828,337.695 73.828 C 337.348 73.828,337.172 74.004,337.305 74.219 C 337.437 74.434,337.364 74.609,337.141 74.609 C 336.918 74.609,331.985 79.355,326.179 85.156 C 320.373 90.957,315.315 95.706,314.940 95.709 C 314.357 95.714,314.343 95.770,314.844 96.094 C 315.311 96.396,315.239 96.474,314.486 96.478 C 313.966 96.482,313.653 96.596,313.790 96.732 C 313.926 96.869,313.434 97.460,312.695 98.047 C 311.957 98.634,311.465 99.225,311.601 99.361 C 311.737 99.498,311.568 99.609,311.224 99.609 C 310.881 99.609,310.488 99.961,310.352 100.391 C 310.215 100.820,309.941 101.172,309.743 101.172 C 309.545 101.172,303.846 106.709,297.080 113.477 C 284.538 126.020,284.375 126.170,284.375 125.255 C 284.375 124.640,283.017 122.973,282.741 123.249 C 282.638 123.352,282.320 123.000,282.034 122.467 C 281.749 121.934,281.192 121.395,280.797 121.269 C 280.402 121.144,280.078 120.779,280.078 120.458 C 280.078 120.138,279.926 119.970,279.740 120.085 C 279.554 120.200,279.087 119.947,278.703 119.522 C 278.318 119.097,278.127 118.750,278.278 118.750 C 278.428 118.750,278.104 118.303,277.557 117.756 C 276.347 116.546,276.318 116.174,277.391 115.600 C 278.428 115.045,282.422 111.013,282.422 110.521 C 282.422 110.320,282.554 110.196,282.715 110.245 C 282.876 110.293,285.342 108.008,288.194 105.166 C 291.047 102.325,293.296 100.000,293.193 100.000 C 293.089 100.000,293.444 99.561,293.981 99.023 C 294.518 98.486,295.136 98.047,295.353 98.047 C 295.571 98.047,295.641 97.871,295.508 97.656 C 295.375 97.441,295.551 97.266,295.898 97.266 C 296.246 97.266,296.422 97.090,296.289 96.875 C 296.156 96.660,296.332 96.484,296.680 96.484 C 297.027 96.484,297.203 96.309,297.070 96.094 C 296.938 95.879,297.075 95.703,297.375 95.703 C 297.676 95.703,298.132 95.241,298.389 94.676 C 298.647 94.111,298.960 93.751,299.085 93.876 C 299.369 94.161,300.156 93.385,300.498 92.480 C 300.640 92.104,301.036 91.797,301.378 91.797 C 301.720 91.797,301.905 91.644,301.789 91.457 C 301.673 91.270,301.910 90.735,302.314 90.269 C 302.842 89.660,303.106 89.563,303.252 89.925 C 303.363 90.203,303.468 90.034,303.485 89.551 C 303.503 89.035,303.763 88.672,304.115 88.672 C 304.444 88.672,305.285 88.101,305.983 87.402 C 307.261 86.125,307.422 85.873,307.422 85.156 C 307.422 84.941,307.687 84.766,308.011 84.766 C 308.803 84.766,323.827 69.607,323.834 68.800 C 323.839 68.247,323.889 68.240,324.219 68.750 C 324.542 69.250,324.598 69.234,324.603 68.645 C 324.607 68.265,328.125 64.445,332.422 60.156 C 336.719 55.867,340.234 52.174,340.234 51.950 C 340.234 51.427,343.602 48.047,344.123 48.047 C 344.339 48.047,344.636 47.563,344.782 46.973 C 344.927 46.382,345.370 45.614,345.766 45.267 C 346.972 44.206,346.797 39.752,345.521 39.070 C 344.991 38.786,344.636 38.428,344.732 38.273 C 345.001 37.838,343.539 36.328,342.848 36.328 C 342.510 36.328,342.125 36.152,341.992 35.938 C 341.859 35.723,341.223 35.547,340.579 35.547 C 339.897 35.547,339.508 35.710,339.648 35.938 C 339.792 36.170,339.327 36.328,338.500 36.328 C 337.735 36.328,337.109 36.504,337.109 36.719 C 337.109 36.934,336.758 37.109,336.328 37.109 C 335.898 37.109,335.547 37.285,335.547 37.500 C 335.547 37.715,335.185 37.891,334.743 37.891 C 334.300 37.891,334.047 38.066,334.180 38.281 C 334.312 38.496,334.186 38.672,333.898 38.672 C 333.611 38.672,333.122 39.023,332.813 39.453 C 332.503 39.883,332.011 40.234,331.719 40.234 C 331.427 40.234,330.513 40.938,329.688 41.797 C 328.862 42.656,328.003 43.359,327.779 43.359 C 327.555 43.359,325.584 45.117,323.399 47.266 C 321.214 49.414,319.187 51.172,318.893 51.172 C 318.600 51.172,318.359 51.348,318.359 51.563 C 318.359 51.777,318.171 51.953,317.941 51.953 C 317.711 51.953,316.349 53.215,314.914 54.757 C 310.533 59.466,294.699 75.190,294.247 75.281 C 293.706 75.390,287.885 80.927,282.273 86.672 C 279.884 89.116,274.809 94.262,270.996 98.106 L 264.062 105.094 261.914 102.946 C 260.732 101.765,259.766 100.589,259.766 100.334 C 259.766 100.079,259.657 99.979,259.524 100.112 C 259.177 100.458,258.203 99.388,258.203 98.661 C 258.203 98.323,257.910 98.047,257.552 98.047 C 257.194 98.047,257.010 97.938,257.143 97.805 C 257.423 97.525,256.787 96.827,255.664 96.178 C 254.904 95.739,254.906 95.727,255.762 95.715 C 256.293 95.708,256.641 95.462,256.641 95.093 C 256.641 94.757,264.007 87.119,273.010 78.121 C 282.013 69.122,289.176 61.676,288.928 61.574 C 288.680 61.473,288.916 61.362,289.453 61.328 C 289.990 61.294,290.213 61.179,289.948 61.072 C 289.674 60.961,296.847 53.494,306.618 43.720 C 316.051 34.283,323.579 26.563,323.346 26.563 C 323.113 26.563,323.654 25.846,324.547 24.970 C 325.734 23.807,326.172 23.063,326.172 22.213 C 326.172 21.394,326.317 21.130,326.660 21.323 C 326.929 21.475,326.797 21.248,326.367 20.818 C 324.265 18.715,322.266 16.415,322.266 16.099 C 322.266 15.570,320.917 14.453,320.278 14.453 C 319.971 14.453,319.500 14.102,319.231 13.672 C 318.428 12.385,315.939 12.600,314.708 14.063 M106.525 23.877 C 108.927 24.843,109.363 25.163,109.943 26.385 C 111.188 29.008,110.261 31.355,106.291 35.640 C 104.845 37.200,102.021 40.586,100.015 43.164 C 95.656 48.769,96.040 48.707,92.729 44.336 C 84.458 33.417,84.297 32.915,88.086 29.860 C 94.305 24.845,102.400 22.218,106.525 23.877 M115.052 36.816 C 115.860 37.729,117.331 39.355,118.320 40.430 C 119.309 41.504,121.612 44.053,123.438 46.094 C 125.264 48.135,126.846 49.893,126.953 50.000 C 127.061 50.107,127.924 51.074,128.872 52.148 C 129.820 53.223,131.402 54.982,132.387 56.058 C 133.373 57.134,134.955 58.892,135.902 59.964 C 136.850 61.037,138.608 62.972,139.809 64.264 C 141.010 65.557,142.959 67.668,144.141 68.955 C 161.412 87.770,177.563 104.267,180.859 106.460 C 183.085 107.941,204.286 128.756,208.754 133.848 C 210.189 135.483,211.521 138.438,215.053 147.827 L 216.924 152.801 178.092 191.635 C 156.734 212.993,139.170 230.469,139.061 230.469 C 138.951 230.469,110.250 201.860,75.279 166.895 L 11.695 103.320 20.468 94.629 C 30.266 84.923,29.512 85.414,31.549 87.402 C 34.463 90.245,41.250 96.713,44.155 99.414 C 45.772 100.918,50.165 105.048,53.918 108.592 C 57.672 112.136,61.968 116.179,63.466 117.576 C 64.964 118.974,67.513 121.358,69.130 122.875 C 79.363 132.475,83.219 135.661,83.847 135.034 C 84.316 134.564,81.132 130.556,67.808 114.844 C 63.216 109.428,63.363 109.600,58.750 104.297 C 46.894 90.665,44.286 87.462,42.347 84.154 C 41.100 82.026,41.165 81.915,45.541 78.711 C 47.595 77.207,50.298 75.186,51.547 74.219 C 52.796 73.252,54.921 71.670,56.270 70.703 C 57.619 69.736,58.914 68.761,59.147 68.536 C 59.380 68.311,62.031 66.304,65.039 64.077 C 68.047 61.850,71.121 59.573,71.871 59.017 C 75.940 56.005,76.028 56.053,85.183 66.450 C 90.641 72.648,96.377 79.149,98.757 81.836 C 108.022 92.294,116.880 101.219,117.440 100.659 C 117.858 100.241,110.293 90.892,104.736 84.959 C 101.261 81.248,95.688 75.035,93.352 72.268 C 92.174 70.872,90.890 69.378,90.497 68.947 C 86.385 64.439,85.167 60.798,87.151 58.946 C 89.049 57.172,92.041 58.059,96.507 61.719 C 98.775 63.578,101.242 65.697,101.963 66.406 C 102.291 66.729,104.048 68.393,105.869 70.104 C 107.690 71.816,113.139 77.090,117.977 81.823 C 129.047 92.653,134.366 97.656,134.810 97.656 C 135.722 97.656,134.939 96.337,131.250 91.657 C 127.866 87.365,118.813 77.055,105.302 62.109 C 96.106 51.937,96.149 51.348,106.836 40.910 C 113.493 34.409,113.094 34.607,115.052 36.816 M71.897 47.684 C 73.366 51.644,72.355 55.783,69.900 55.853 C 69.780 55.857,68.286 56.932,66.580 58.244 C 49.595 71.295,41.180 77.331,39.133 77.930 C 38.018 78.256,35.156 75.493,35.156 74.090 C 35.156 72.694,39.662 68.726,50.977 60.157 C 60.953 52.602,69.916 45.637,70.150 45.260 C 70.531 44.643,71.021 45.323,71.897 47.684 M83.644 47.656 C 86.745 47.656,86.352 54.290,83.093 56.966 C 81.062 58.634,77.074 52.889,78.463 50.294 C 79.086 49.130,82.023 47.179,82.739 47.454 C 83.029 47.565,83.437 47.656,83.644 47.656 M25.766 80.542 C 26.904 81.764,26.801 83.787,25.514 85.510 C 22.522 89.515,11.959 99.219,10.590 99.219 C 8.453 99.219,9.895 96.985,15.582 91.486 C 18.669 88.501,19.582 87.384,19.522 86.671 C 19.377 84.927,19.532 84.514,20.972 82.832 C 22.105 81.509,24.360 79.698,24.887 79.689 C 24.932 79.688,25.328 80.072,25.766 80.542 M40.307 86.512 C 40.459 86.721,40.513 86.961,40.427 87.047 C 40.261 87.213,39.732 86.696,38.479 85.144 L 37.701 84.180 38.867 85.156 C 39.508 85.693,40.156 86.304,40.307 86.512 M254.102 186.536 C 263.548 190.882,264.250 191.276,265.981 193.201 C 266.928 194.255,269.732 197.227,272.212 199.805 C 274.691 202.383,278.394 206.250,280.440 208.398 C 282.487 210.547,286.802 215.036,290.030 218.375 C 293.258 221.714,297.297 225.932,299.006 227.750 C 300.716 229.568,304.759 233.779,307.992 237.109 C 311.225 240.439,317.297 246.763,321.486 251.162 C 325.675 255.560,330.244 260.313,331.641 261.724 C 333.037 263.134,335.050 265.248,336.115 266.421 C 338.202 268.723,360.284 291.411,369.531 300.756 C 381.756 313.110,383.461 315.355,382.360 317.651 C 380.876 320.745,371.219 331.539,369.351 332.193 C 368.725 332.412,367.113 330.964,360.562 324.302 C 352.855 316.464,349.706 313.672,348.574 313.672 C 346.967 313.672,350.085 317.541,358.762 326.313 C 362.751 330.347,366.016 333.772,366.016 333.925 C 366.016 334.305,349.450 350.781,349.068 350.781 C 348.900 350.781,341.953 343.970,333.629 335.645 C 320.678 322.691,312.165 314.633,310.254 313.520 C 307.890 312.142,313.853 320.364,321.855 329.516 C 322.618 330.388,323.669 331.618,324.191 332.250 C 325.211 333.485,329.754 338.740,330.080 339.063 C 332.021 340.981,334.375 345.418,334.375 347.156 C 334.375 350.108,333.205 351.268,321.289 360.131 C 316.348 363.807,310.898 367.921,309.180 369.274 C 303.917 373.417,302.947 373.968,301.887 373.412 C 299.271 372.039,283.000 354.844,270.508 340.251 C 266.127 335.133,263.281 332.680,263.281 334.022 C 263.281 334.619,268.554 341.733,269.913 342.969 C 270.031 343.076,271.444 344.654,273.052 346.475 C 274.661 348.296,276.228 350.054,276.535 350.381 C 282.461 356.699,296.874 373.458,296.874 374.032 C 296.875 374.490,290.178 381.250,289.723 381.250 C 289.558 381.250,262.800 354.575,230.260 321.973 L 171.098 262.695 210.061 223.711 C 244.383 189.369,249.140 184.749,250.000 184.912 C 250.538 185.014,252.384 185.745,254.102 186.536 M329.907 334.863 L 331.055 336.133 329.785 334.986 C 328.602 333.916,328.336 333.594,328.638 333.594 C 328.705 333.594,329.276 334.165,329.907 334.863 " stroke="none" fill="#757575" fill-rule="evenodd"></path><path id="path1" d="M326.432 20.964 C 326.047 21.349,326.116 23.047,326.517 23.047 C 326.707 23.047,326.840 22.520,326.814 21.875 C 326.788 21.230,326.750 20.703,326.729 20.703 C 326.709 20.703,326.576 20.820,326.432 20.964 M99.414 24.016 C 92.987 25.636,85.569 30.566,85.553 33.228 C 85.544 34.739,94.804 47.852,95.881 47.852 C 96.149 47.852,98.010 45.742,100.015 43.164 C 102.021 40.586,104.845 37.200,106.291 35.640 C 110.261 31.355,111.188 29.008,109.943 26.385 C 109.363 25.163,108.927 24.843,106.525 23.877 C 105.136 23.319,101.932 23.381,99.414 24.016 M324.272 25.195 C 323.588 25.947,323.182 26.563,323.370 26.563 C 323.732 26.563,326.172 24.348,326.172 24.020 C 326.172 23.485,325.386 23.971,324.272 25.195 M106.836 40.910 C 96.149 51.348,96.106 51.937,105.302 62.109 C 118.813 77.055,127.866 87.365,131.250 91.657 C 134.939 96.337,135.722 97.656,134.810 97.656 C 134.366 97.656,129.047 92.653,117.977 81.823 C 113.139 77.090,107.690 71.816,105.869 70.104 C 104.048 68.393,102.291 66.729,101.963 66.406 C 101.242 65.697,98.775 63.578,96.507 61.719 C 86.978 53.910,82.116 59.757,90.497 68.947 C 90.890 69.378,92.174 70.872,93.352 72.268 C 95.688 75.035,101.261 81.248,104.736 84.959 C 107.787 88.216,114.126 95.684,116.048 98.286 C 121.425 105.565,110.948 95.597,98.757 81.836 C 96.377 79.149,90.641 72.648,85.183 66.450 C 76.028 56.053,75.940 56.005,71.871 59.017 C 71.121 59.573,68.047 61.850,65.039 64.077 C 62.031 66.304,59.380 68.311,59.147 68.536 C 58.914 68.761,57.619 69.736,56.270 70.703 C 54.921 71.670,52.796 73.252,51.547 74.219 C 50.298 75.186,47.595 77.207,45.541 78.711 C 41.165 81.915,41.100 82.026,42.347 84.154 C 44.286 87.462,46.894 90.665,58.750 104.297 C 63.363 109.600,63.216 109.428,67.808 114.844 C 81.132 130.556,84.316 134.564,83.847 135.034 C 83.219 135.661,79.363 132.475,69.130 122.875 C 67.513 121.358,64.964 118.974,63.466 117.576 C 61.968 116.179,57.672 112.136,53.918 108.592 C 50.165 105.048,45.772 100.918,44.155 99.414 C 41.250 96.713,34.463 90.245,31.549 87.402 C 29.512 85.414,30.266 84.923,20.468 94.629 L 11.695 103.320 75.279 166.895 C 110.250 201.860,138.951 230.469,139.061 230.469 C 139.170 230.469,156.734 212.993,178.092 191.635 L 216.924 152.801 215.053 147.827 C 211.521 138.438,210.189 135.483,208.754 133.848 C 204.286 128.756,183.085 107.941,180.859 106.460 C 177.563 104.267,161.412 87.770,144.141 68.955 C 142.959 67.668,141.010 65.557,139.809 64.264 C 138.608 62.972,136.850 61.037,135.902 59.964 C 134.955 58.892,133.373 57.134,132.387 56.058 C 131.402 54.982,129.820 53.223,128.872 52.148 C 127.924 51.074,127.061 50.107,126.953 50.000 C 126.846 49.893,125.264 48.135,123.438 46.094 C 121.612 44.053,119.309 41.504,118.320 40.430 C 117.331 39.355,115.860 37.729,115.052 36.816 C 113.094 34.607,113.493 34.409,106.836 40.910 M126.953 38.823 C 126.953 38.973,127.305 39.473,127.734 39.934 C 128.164 40.395,128.516 40.591,128.516 40.369 C 128.516 40.147,128.164 39.647,127.734 39.258 C 127.305 38.869,126.953 38.673,126.953 38.823 M71.094 40.625 C 71.094 40.840,71.357 41.016,71.680 41.016 C 72.002 41.016,72.266 40.840,72.266 40.625 C 72.266 40.410,72.002 40.234,71.680 40.234 C 71.357 40.234,71.094 40.410,71.094 40.625 M70.150 45.260 C 69.916 45.637,60.953 52.602,50.977 60.157 C 34.846 72.374,33.816 73.558,36.692 76.581 C 39.113 79.127,40.550 78.245,66.580 58.244 C 68.286 56.932,69.780 55.857,69.900 55.853 C 71.119 55.818,72.785 53.349,72.737 51.648 C 72.656 48.807,70.796 44.214,70.150 45.260 M80.588 48.303 C 77.568 50.261,77.289 52.139,79.572 55.132 C 81.851 58.122,82.704 58.053,84.832 54.709 C 86.582 51.959,85.857 47.656,83.644 47.656 C 83.437 47.656,83.029 47.565,82.739 47.454 C 82.448 47.342,81.480 47.724,80.588 48.303 M340.683 51.041 C 340.058 51.720,340.233 52.046,340.977 51.586 C 341.265 51.408,341.436 51.083,341.356 50.865 C 341.272 50.635,340.989 50.709,340.683 51.041 M290.529 59.794 C 289.944 60.423,289.608 60.938,289.782 60.938 C 290.201 60.938,291.978 59.035,291.761 58.819 C 291.669 58.726,291.114 59.165,290.529 59.794 M255.588 71.257 C 255.630 71.489,255.444 71.636,255.176 71.582 C 254.907 71.528,254.688 71.660,254.688 71.875 C 254.688 72.402,255.132 72.348,255.957 71.722 C 256.788 71.091,256.823 70.833,256.076 70.833 C 255.766 70.833,255.546 71.024,255.588 71.257 M339.260 72.263 C 338.870 72.694,338.678 73.047,338.835 73.047 C 339.246 73.047,340.360 71.870,340.148 71.659 C 340.050 71.560,339.650 71.832,339.260 72.263 M295.641 73.636 C 294.856 74.355,294.303 75.032,294.412 75.141 C 294.520 75.250,295.225 74.723,295.977 73.971 C 297.752 72.196,297.493 71.938,295.641 73.636 M251.563 75.218 C 251.563 75.553,251.387 75.719,251.172 75.586 C 250.957 75.453,250.781 75.531,250.781 75.758 C 250.781 75.986,250.518 76.172,250.195 76.172 C 249.582 76.172,249.421 76.634,249.875 77.089 C 250.021 77.235,250.637 76.880,251.242 76.300 C 252.380 75.210,252.632 74.609,251.953 74.609 C 251.738 74.609,251.563 74.883,251.563 75.218 M23.609 80.420 C 22.153 81.307,19.548 84.285,19.488 85.129 C 19.464 85.466,19.480 86.160,19.522 86.671 C 19.582 87.384,18.669 88.501,15.582 91.486 C 9.895 96.985,8.453 99.219,10.590 99.219 C 11.959 99.219,22.522 89.515,25.514 85.510 C 26.801 83.787,26.904 81.764,25.766 80.542 C 24.814 79.521,25.060 79.535,23.609 80.420 M345.801 88.475 C 345.184 89.175,345.188 89.323,345.820 89.323 C 346.099 89.323,346.352 89.001,346.382 88.607 C 346.446 87.761,346.432 87.758,345.801 88.475 M302.522 89.981 C 301.632 90.959,301.510 91.549,302.366 90.734 C 302.867 90.256,303.199 89.790,303.103 89.699 C 303.008 89.607,302.746 89.734,302.522 89.981 M257.423 93.553 C 256.920 94.089,256.617 94.638,256.751 94.772 C 256.992 95.013,257.509 94.577,258.544 93.260 C 259.367 92.214,258.459 92.451,257.423 93.553 M337.585 96.493 C 337.127 97.226,337.149 97.248,337.882 96.790 C 338.316 96.518,338.672 96.163,338.672 96.000 C 338.672 95.436,338.077 95.706,337.585 96.493 M258.203 99.048 C 258.203 99.503,259.331 100.387,259.520 100.081 C 259.627 99.908,259.375 99.553,258.959 99.294 C 258.543 99.034,258.203 98.923,258.203 99.048 M259.766 100.536 C 259.766 101.015,261.752 102.831,262.003 102.580 C 262.133 102.450,262.166 102.300,262.077 102.246 C 261.987 102.192,261.431 101.722,260.840 101.201 C 260.249 100.681,259.766 100.381,259.766 100.536 M359.781 116.089 C 359.038 116.886,358.751 117.578,359.162 117.578 C 359.393 117.578,361.328 115.643,361.328 115.412 C 361.328 114.955,360.500 115.318,359.781 116.089 M334.766 117.383 C 334.766 117.705,334.561 117.969,334.310 117.969 C 334.059 117.969,333.946 118.061,334.059 118.173 C 334.171 118.286,334.552 118.267,334.905 118.131 C 335.598 117.866,335.799 116.797,335.156 116.797 C 334.941 116.797,334.766 117.061,334.766 117.383 M353.433 122.479 C 353.156 122.812,352.490 123.533,351.953 124.082 C 350.997 125.060,350.996 125.071,351.878 124.624 C 352.373 124.373,352.875 123.915,352.994 123.607 C 353.112 123.299,353.453 123.047,353.753 123.047 C 354.052 123.047,354.297 122.783,354.297 122.461 C 354.297 121.715,354.066 121.720,353.433 122.479 M347.471 128.265 C 347.033 128.585,346.914 128.884,347.162 129.038 C 347.385 129.175,347.788 129.022,348.058 128.697 C 348.724 127.895,348.351 127.621,347.471 128.265 M303.758 144.419 C 303.651 144.526,304.002 145.054,304.540 145.591 C 305.077 146.128,305.604 146.479,305.711 146.372 C 305.819 146.265,305.467 145.737,304.930 145.200 C 304.393 144.663,303.866 144.311,303.758 144.419 M318.853 157.219 C 318.588 157.520,318.062 157.940,317.685 158.151 C 317.307 158.362,317.135 158.671,317.301 158.837 C 317.467 159.004,318.165 158.577,318.853 157.890 C 319.540 157.203,319.930 156.647,319.719 156.655 C 319.508 156.664,319.119 156.917,318.853 157.219 M313.580 162.011 C 312.175 163.097,311.071 164.463,311.618 164.441 C 312.138 164.421,315.438 161.402,315.200 161.164 C 315.075 161.038,314.346 161.419,313.580 162.011 M210.061 223.711 L 171.098 262.695 230.260 321.973 C 262.800 354.575,289.558 381.250,289.723 381.250 C 290.178 381.250,296.875 374.490,296.874 374.032 C 296.874 373.458,282.461 356.699,276.535 350.381 C 276.228 350.054,274.661 348.296,273.052 346.475 C 271.444 344.654,270.031 343.076,269.913 342.969 C 268.554 341.733,263.281 334.619,263.281 334.022 C 263.281 332.680,266.127 335.133,270.508 340.251 C 283.000 354.844,299.271 372.039,301.887 373.412 C 302.947 373.968,303.917 373.417,309.180 369.274 C 310.898 367.921,316.348 363.807,321.289 360.131 C 333.205 351.268,334.375 350.108,334.375 347.156 C 334.375 345.418,332.021 340.981,330.080 339.063 C 329.754 338.740,325.211 333.485,324.191 332.250 C 323.669 331.618,322.618 330.388,321.855 329.516 C 301.405 306.128,307.063 309.074,333.629 335.645 C 341.953 343.970,348.900 350.781,349.068 350.781 C 349.450 350.781,366.016 334.305,366.016 333.925 C 366.016 333.772,362.751 330.347,358.762 326.313 C 350.085 317.541,346.967 313.672,348.574 313.672 C 349.706 313.672,352.855 316.464,360.562 324.302 C 367.113 330.964,368.725 332.412,369.351 332.193 C 371.219 331.539,380.876 320.745,382.360 317.651 C 383.461 315.355,381.756 313.110,369.531 300.756 C 360.284 291.411,338.202 268.723,336.115 266.421 C 335.050 265.248,333.037 263.134,331.641 261.724 C 330.244 260.313,325.675 255.560,321.486 251.162 C 317.297 246.763,311.225 240.439,307.992 237.109 C 304.759 233.779,300.716 229.568,299.006 227.750 C 297.297 225.932,293.258 221.714,290.030 218.375 C 286.802 215.036,282.487 210.547,280.440 208.398 C 278.394 206.250,274.691 202.383,272.212 199.805 C 269.732 197.227,266.928 194.255,265.981 193.201 C 264.250 191.276,263.548 190.882,254.102 186.536 C 252.384 185.745,250.538 185.014,250.000 184.912 C 249.140 184.749,244.383 189.369,210.061 223.711 M297.278 216.222 C 297.299 216.866,298.413 218.123,298.705 217.832 C 298.856 217.680,298.594 217.171,298.123 216.699 C 297.651 216.228,297.271 216.013,297.278 216.222 M317.188 236.778 C 317.188 236.894,317.530 237.385,317.948 237.867 C 318.367 238.349,318.771 238.930,318.847 239.157 C 318.922 239.384,319.203 239.498,319.469 239.409 C 319.769 239.309,319.425 238.735,318.571 237.906 C 317.810 237.169,317.188 236.661,317.188 236.778 M337.891 259.364 C 337.891 259.903,339.014 260.623,339.442 260.358 C 339.670 260.217,339.768 259.960,339.661 259.786 C 339.389 259.346,337.891 258.989,337.891 259.364 M357.422 278.846 C 357.422 279.027,357.773 279.494,358.203 279.883 C 359.082 280.678,359.233 280.243,358.441 279.199 C 357.885 278.468,357.422 278.307,357.422 278.846 M152.026 282.617 C 151.559 283.154,151.320 283.594,151.495 283.594 C 151.669 283.594,152.194 283.154,152.661 282.617 C 153.128 282.080,153.368 281.641,153.193 281.641 C 153.018 281.641,152.493 282.080,152.026 282.617 M68.402 300.804 C 67.888 301.232,67.579 301.694,67.716 301.830 C 67.852 301.967,68.316 301.672,68.748 301.175 C 69.965 299.771,69.824 299.619,68.402 300.804 M385.547 314.258 C 385.547 314.580,385.723 314.844,385.938 314.844 C 386.152 314.844,386.328 314.580,386.328 314.258 C 386.328 313.936,386.152 313.672,385.938 313.672 C 385.723 313.672,385.547 313.936,385.547 314.258 M339.063 344.090 C 339.063 344.639,340.647 346.484,341.119 346.484 C 341.313 346.484,341.391 346.265,341.292 345.996 C 341.194 345.728,340.916 345.552,340.674 345.605 C 340.432 345.659,340.234 345.461,340.234 345.165 C 340.234 344.869,339.971 344.408,339.648 344.141 C 339.248 343.808,339.063 343.792,339.063 344.090 M44.922 347.461 C 44.922 347.783,45.098 348.047,45.313 348.047 C 45.527 348.047,45.703 347.783,45.703 347.461 C 45.703 347.139,45.527 346.875,45.313 346.875 C 45.098 346.875,44.922 347.139,44.922 347.461 " stroke="none" fill="#fbfbfb" fill-rule="evenodd"></path></g></svg>