<svg width="150px" height="150px" viewBox="-4 -8 68 68" version="1.1" xmlns="http://www.w3.org/2000/svg" xmlns:xlink="http://www.w3.org/1999/xlink"><g id="Community" stroke="none" stroke-width="1" fill="none" ><path d="M15.695 1.176c-2.148.25-4.117.656-6.843 1.406-1.7.469-2.832.844-2.832.938 0 .082.59 1.246 1.07 2.113 1.262 2.277 2.215 3.797 3.578 5.719.594.835.781 1.09 1.477 1.953.73.91 2.152 2.3 3.058 2.992 2.426 1.848 6.266 2.695 9.254 2.043.145-.031.379-.086.52-.113 1.273-.286 2.75-1.086 3.824-2.07.656-.602.656-.602 1.695-.337 1.043.266 3.305 1.203 5.375 2.227.48.238.871.398.899.367.054-.055-.012-.105-2.25-1.707-1.536-1.098-5.477-3.633-5.602-3.598-.023.004-.188-.082-.363-.191-1.84-1.172-6.883-3.477-9.63-4.406-.933-.317-.655-.262 1.286.238 5.09 1.324 8.121 2.453 10.191 3.797.414.27.516.281.516.043 0-.098.031-.25.066-.344.098-.262.11-1.773.016-2.363-.59-3.828-4.125-7.406-8.223-8.328-1.484-.332-1.945-.371-4.484-.387-1.316-.008-2.484-.004-2.598.008" fill="#33a453"/><path d="M13.406 16.582C4.145 26 4.16 41.738 13.434 50.949c11.113 11.035 29.074 8.64 37.425-4.988 4.43-7.223 4.125-16.035-.691-20.133-2.965-2.523-4.434-2.922-12.168-3.324a75.28 75.28 0 0 1-2.043-.125l-.305-.04-.789-.995c-2.668-3.371-4.718-5.61-5.199-5.68l-.281-.039-.399.387c-2.609 2.539-6.52 3.23-10.664 1.89-1.504-.488-2.218-.886-3.84-2.16l-.14-.11-.934.95m7.344 3.922c.738.281.64.887-.23 1.465-1.91 1.265-3.442 2.988-4.56 5.136-.401.778-.542.91-.913.868-.645-.075-.738-.528-.29-1.43 1.067-2.164 2.77-4.152 4.712-5.5.863-.598.992-.652 1.281-.54" fill="#f44f43"/><path d="M31.055 11.148c0 .18.011.254.023.165.016-.09.016-.239 0-.329-.012-.09-.023-.015-.023.164m-10.848 9.418c-1.605.872-3.668 2.938-4.82 4.829-1.086 1.78-1.176 2.484-.34 2.578.371.043.512-.09.914-.868 1.117-2.148 2.648-3.87 4.559-5.136.738-.492.914-.91.53-1.278-.28-.265-.515-.3-.843-.125" fill="#fbfafa"/><path d="M45.617 5.063c-4.312 2.59-7.597 7.16-8.68 12.078-.226 1.03-.242 1.129-.171 1.175.039.024.03.07-.024.137-.09.106-.187.848-.254 1.942-.023.351-.062.644-.086.644-.027 0-.402-.437-.832-.977-.765-.949-2.277-2.753-2.738-3.265-.293-.324-2.262-1.086-2.82-1.094-.028 0 .289.36.707.797 1.183 1.242 2.992 3.36 4.41 5.176l.52.664.304.039c.172.02 1.09.074 2.047.125 7.734.402 9.203.8 12.168 3.324 6.496 5.527 4.5 18.195-4.066 25.84-9.676 8.629-23.563 8.324-32.668-.719C4.156 41.734 4.144 26 13.41 16.58l.938-.954-.938-.953-.496.46C6.492 21.13 3.63 31.41 5.898 40.317c2.27 8.891 9.067 15.79 17.942 18.207 3.73 1.016 8.465 1.02 12.344.012 10.82-2.816 18.91-12.594 19.09-23.066.105-6.153-2.204-10.102-7.508-12.844-1.672-.863-3.813-1.21-9-1.457l-.856-.04.012-.75C38 15.11 41.406 9.267 46.027 6.474c1.012-.61 1.223-1.047.743-1.535-.293-.297-.48-.278-1.153.125m-17.324 7.69c.11.11.64.4.598.325-.024-.039-.184-.144-.352-.23-.168-.082-.277-.13-.246-.094m.469 3.445l-.172.196.191-.176c.18-.168.219-.215.172-.215a1.41 1.41 0 0 0-.191.195" fill="#b0273c"/></g></svg>
