<?xml version="1.0" encoding="utf-8"?>
<!-- Generator: Adobe Illustrator 25.3.1, SVG Export Plug-In . SVG Version: 6.00 Build 0)  -->
<svg version="1.1" id="Layer_1" xmlns="http://www.w3.org/2000/svg" xmlns:xlink="http://www.w3.org/1999/xlink" x="0px" y="0px"
	 viewBox="0 0 150 58" style="enable-background:new 0 0 150 58;" xml:space="preserve">
<style type="text/css">
	.st0{fill:#C1AA3C;}
	.st1{fill:#C3A646;}
</style>
<g>
	<path class="st0" d="M127.4,7.4c7.1,14.5,14.1,28.8,21.1,43.2c-0.7,0-1.2,0-1.8,0c-0.1,0-0.2-0.1-0.3-0.2c-0.1-0.1-0.1-0.3-0.2-0.4
		c-2.5-5-5-10-7.4-15c-0.2-0.4-0.4-0.6-0.9-0.6c-7.1,0-14.2,0-21.3,0c-0.4,0-0.7,0.1-0.9,0.5c-2.4,5-4.8,9.9-7.3,14.9
		c-0.1,0.1-0.2,0.3-0.2,0.4c-0.1,0.2-0.2,0.3-0.4,0.3c-0.5,0-0.9,0-1.5,0C113.4,36.2,120.4,21.9,127.4,7.4z M116.7,32.8
		c7.1,0,14.1,0,21.1,0c-3.5-7.2-7.1-14.3-10.6-21.6C123.7,18.5,120.2,25.7,116.7,32.8z"/>
	<path class="st0" d="M87.9,36.8c-0.2,0.4-0.1,0.6-0.1,0.8c0,4,0,7.9,0,11.9c0,0.1,0,0.3,0,0.4c0,0.2-0.1,0.3-0.3,0.3
		c-0.4,0-0.8,0-1.2,0C86,50.1,86,50,86,49.8c0-0.1,0-0.3,0-0.4c0-13.6,0-27.2,0-40.8c0-0.8-0.1-0.7,0.7-0.7c1.3,0,2.5,0,3.8,0.2
		c2.4,0.4,4.5,1.3,6.3,2.8c1.6,1.2,2.9,2.7,3.8,4.5c0.8,1.5,1.3,3.1,1.5,4.9c0.4,4.5-1.4,8.2-4.7,11.1c-1.2,1-2.4,1.9-3.9,2.5
		c-1.4,0.6-2.9,1-4.4,1c-0.1,0-0.3,0-0.4,0c0,0,0,0-0.1,0.1c0,0.2,0.2,0.3,0.3,0.4c2.2,2.3,4.4,4.7,6.6,7c2.3,2.5,4.7,4.9,7,7.4
		c0.1,0.1,0.3,0.2,0.3,0.4c-0.7,0.1-1.4,0-2.1,0c-0.2,0-0.3-0.2-0.4-0.3c-1.3-1.3-2.5-2.7-3.8-4c-2.2-2.3-4.3-4.5-6.5-6.8
		c-0.5-0.6-1.1-1.1-1.6-1.7C88.2,37.1,88.1,37,87.9,36.8z M87.8,21.3c0,3.7,0,7.4,0,11.1c0,0.1,0,0.3,0,0.4c0,0.3,0.1,0.4,0.3,0.4
		c1.5,0,3-0.1,4.4-0.6c2.1-0.8,3.9-2.1,5.3-3.9c2.6-3.3,3.2-7,1.9-11c-0.7-2.2-2.1-4-3.9-5.4c-2.2-1.8-4.7-2.7-7.5-2.7
		c-0.5,0-0.5,0-0.5,0.5c0,0.1,0,0.2,0,0.3C87.8,14,87.8,17.7,87.8,21.3z"/>
	<path class="st0" d="M2.2,29c0-6.8,0-13.6,0-20.4c0-0.8-0.1-0.7,0.7-0.7c4.6,0,9.1,0,13.7,0c0.1,0,0.1,0,0.2,0c0.5,0,0.5,0,0.5,0.5
		c0,0.3,0,0.6,0,0.9c0,0.2-0.1,0.3-0.3,0.3c-0.1,0-0.3,0-0.4,0c-3.9,0-7.8,0-11.7,0c-0.1,0-0.3,0-0.4,0c-0.2,0-0.3,0.1-0.3,0.3
		c0,0.1,0,0.2,0,0.3c0,7.2,0,14.4,0,21.6c0,0.1,0,0.1,0,0.2c0,0.5,0,0.5,0.5,0.5c3.3,0,6.5,0,9.8,0c0.7,0,0.7-0.1,0.7,0.7
		c0,0.3,0.1,0.7-0.1,0.9c-0.2,0.2-0.6,0.1-0.9,0.1c-3.1,0-6.3,0-9.4,0c-0.1,0-0.3,0-0.4,0c-0.2,0-0.3,0.1-0.3,0.3c0,0.1,0,0.3,0,0.4
		c0,4.9,0,9.7,0,14.6c0,0.1,0,0.3,0,0.4c0,0.3-0.1,0.4-0.3,0.4c-0.4,0-0.8,0-1.2,0c-0.2,0-0.3-0.1-0.3-0.3c0-0.1,0-0.3,0-0.4
		C2.2,42.6,2.2,35.8,2.2,29z"/>
	<path class="st0" d="M22.9,29c0-6.8,0-13.6,0-20.4c0-0.7,0-0.7,0.6-0.7c0.3,0,0.6,0,0.9,0c0.2,0,0.3,0.1,0.3,0.3c0,0.2,0,0.3,0,0.5
		c0,13,0,26,0,39c0,0.9-0.1,0.8,0.8,0.8c3.8,0,7.6,0,11.5,0c0.1,0,0.3,0,0.4,0c0.4,0,0.4,0,0.4,0.4c0,0.3,0,0.6,0,0.9
		c0,0.2-0.1,0.3-0.3,0.3c-0.1,0-0.2,0-0.3,0c-4.6,0-9.2,0-13.7,0c-0.6,0-0.6,0.1-0.6-0.6C22.9,42.6,22.9,35.8,22.9,29z"/>
	<path class="st1" d="M54.9,35c-0.1,0.1-0.2,0-0.3,0.1c-0.2,0-0.3-0.1-0.3-0.2c-0.4-0.8-0.7-1.5-1.1-2.3c-0.5-1.1-1.1-2.2-1.6-3.3
		c-0.1-0.1-0.1-0.2-0.2-0.3c-0.1,0.1-0.1,0.2-0.2,0.3c-0.9,1.8-1.8,3.6-2.7,5.5c-0.2,0.4-0.2,0.4-0.6,0.3c0-0.1,0-0.2,0.1-0.3
		c0.9-1.9,1.8-3.7,2.7-5.6c0.1-0.2,0.2-0.4,0.3-0.6c0.1-0.2,0.1-0.3,0-0.5c-0.5-1.1-1.1-2.1-1.6-3.2c-0.3-0.6-0.6-1.1-0.8-1.7
		c0-0.1-0.1-0.1-0.1-0.2c0.2,0,0.3,0,0.5,0c0.1,0,0.2,0.1,0.2,0.2c0.4,0.9,0.9,1.8,1.3,2.6c0.3,0.6,0.6,1.1,0.9,1.7
		c0,0.1,0,0.1,0.1,0.2c0.1-0.1,0.1-0.2,0.2-0.3c0.7-1.3,1.3-2.7,2-4c0.2-0.4,0.2-0.4,0.6-0.3c0,0.1,0,0.2-0.1,0.3
		c-0.8,1.6-1.5,3.1-2.3,4.7c-0.1,0.3-0.1,0.4,0,0.7c1,2,2,4.1,3,6.1C54.8,34.8,54.9,34.9,54.9,35z"/>
	<path class="st1" d="M56.5,29c0-1.9,0-3.8,0-5.7c0-0.4,0-0.4,0.3-0.4c1.2,0,3.7,0,3.7,0c0.1,0,0.2,0,0.2,0.1c0,0.1,0,0.2,0,0.4
		c0,0-0.1,0-0.1,0c-0.1,0-2.3,0-3.4,0c-0.3,0-0.3,0-0.3,0.3c0,2,0,4,0,6c0,0.3,0,0.3,0.3,0.3c0.9,0,1.7,0,2.6,0
		c0.3,0,0.4,0.1,0.3,0.4c0,0.1-0.1,0.1-0.1,0.1c-0.1,0-1.9,0-2.7,0c-0.3,0-0.3,0-0.3,0.3c0,0.1,0,0.2,0,0.2c0,1.3,0,2.5,0,3.8
		c0,0.3-0.1,0.4-0.5,0.3c-0.1,0-0.1-0.1-0.1-0.1c0-0.1,0-0.2,0-0.3C56.5,32.8,56.5,30.9,56.5,29z"/>
	<path class="st1" d="M62.4,29c0-1.9,0-3.7,0-5.6c0-0.1,0-0.1,0-0.2c0-0.1,0-0.2,0-0.3c0.1-0.1,0.3,0,0.4,0c0.1,0,0.1,0.1,0.1,0.1
		c0,0.1,0,0.2,0,0.3c0,3.6,0,7.2,0,10.8c0,0.4,0,0.4,0.4,0.4c1,0,1.9,0,2.9,0c0.1,0,0.1,0,0.2,0c0.2,0,0.3,0.2,0.2,0.4
		c0,0-0.1,0.1-0.1,0.1c-0.1,0-0.2,0-0.2,0c-1.2,0-2.4,0-3.6,0c-0.1,0-0.1,0-0.2,0c-0.1,0-0.2-0.1-0.2-0.2c0-0.1,0-0.2,0-0.2
		C62.4,32.8,62.4,30.9,62.4,29z"/>
	<path class="st1" d="M78.8,29.6c-0.2,1.5-0.2,3.2-0.7,4.6c0.2-1.2,0.3-2.5,0.2-3.8c0.2-7.6-4-15.2-10.5-19.2
		c-6.1-3.7-14.2-4-20.4-0.6C35.8,16.4,32.6,31.9,40.8,42c8.2,10.3,24.3,10.3,32.5-0.1c0.4-0.6,0.9-1.1,1.2-1.7
		c0.1-0.3-0.8-0.1-1-0.2c-2.4,0-4.7-0.3-7-0.7c-5.9-1.3-7.5-1.5-10.9,3.9c-0.1,0.5-1.8,3.2-1.1,3.2c0.3,0,0.8,0.2,1.1-0.2
		c0.7-1.1,1.2-2.4,2-3.4c0.1-0.3,2-3,1.3-1.6c-0.8,1.4-1.6,2.9-2.3,4.5c-0.3,0.6-0.1,0.8,0.6,0.7c0.4,0,0.7-0.2,0.8-0.6
		c0.6-1.2,1.4-2.2,2.1-3.3c0.3-0.3,0.5-0.8,0.8-1c-0.1,0.5-0.5,0.9-0.7,1.3c-0.2,0.6-2,3.3-1.5,3.6c0.4,0.1,1,0,1.2-0.4
		c0.7-1.3,1.5-2.6,2.5-3.7c-0.5,1.3-1.7,2.4-2,3.9c0.1,0.3,1-0.1,1.3-0.1c0.5-0.1,0.6-0.7,0.9-1c0.5-0.7,0.9-1.5,1.6-2.1
		c0.1,0.3-2,2.9-1.2,2.9c0.5-0.1,1.1-0.2,1.6-0.5c0.4-0.6,0.8-1.2,1.3-1.7c0,0.4-0.5,0.7-0.5,1.2c-0.1,0.4,0.5,0,0.7,0
		c-3,2.1-6.8,2.9-10.4,2.8c-0.4-0.1-3,0.1-2.7-0.5c1.1-3.8,3.5-8.9,7.8-9.6c3.5-0.4,6.8,1.1,10.2,1.5c1.4,0.2,2.8,0.2,4.2,0.1
		c0.4,0,0.8-0.1,1.1-0.2c0.3,0,0,0.4,0,0.5c-5.5,10.2-18.6,14.4-29,9C36.4,42.8,32,29,37.9,18.5c5.4-10,18-14.2,28.3-9.3
		C73.9,12.7,79.1,21,78.8,29.6z"/>
</g>
</svg>
