<?xml version="1.0" encoding="UTF-8" standalone="no"?>
<!-- Created with Inkscape (http://www.inkscape.org/) -->

<svg
   width="150"
   height="58"
   viewBox="0 0 150 58"
   version="1.1"
   id="svg20"
   sodipodi:docname="goji (1).svg"
   inkscape:version="1.1 (c68e22c387, 2021-05-23)"
   xmlns:inkscape="http://www.inkscape.org/namespaces/inkscape"
   xmlns:sodipodi="http://sodipodi.sourceforge.net/DTD/sodipodi-0.dtd"
   xmlns="http://www.w3.org/2000/svg"
   xmlns:svg="http://www.w3.org/2000/svg">
  <sodipodi:namedview
     id="namedview11"
     pagecolor="#ffffff"
     bordercolor="#666666"
     borderopacity="1.0"
     inkscape:pageshadow="2"
     inkscape:pageopacity="0.0"
     inkscape:pagecheckerboard="0"
     showgrid="false"
     inkscape:zoom="7.0533333"
     inkscape:cx="74.929112"
     inkscape:cy="28.993384"
     inkscape:window-width="5120"
     inkscape:window-height="1377"
     inkscape:window-x="-8"
     inkscape:window-y="-8"
     inkscape:window-maximized="1"
     inkscape:current-layer="svg20" />
  <defs
     id="defs17">
    <rect
       x="326.59793"
       y="302.16739"
       width="250.73463"
       height="63.005116"
       id="rect28743" />
    <rect
       x="84.864029"
       y="264.87863"
       width="7.7149119"
       height="54.004383"
       id="rect27087" />
  </defs>
  <g
     id="layer1">
    <g
       aria-label="Goji"
       transform="scale(0.8052906,1.2417877)"
       id="text2688"
       style="font-size:42.0897px;line-height:1.25;stroke-width:1.05225">
      <path
         d="M 61.78848,1.6752129 V 16.546406 Q 49.53146,6.8049114 35.301479,6.8049114 q -6.362799,0 -9.914129,3.3047096 -3.55133,3.280048 -3.55133,9.149607 0,11.541821 14.008023,11.541821 6.412123,0 10.382707,-2.663497 v -1.824989 l -13.73674,-7.96583 h 42.295351 l -12.281683,7.96583 V 37.0652 l -7.447927,-3.551329 q -10.456693,3.526667 -21.653247,3.526667 -13.465459,0 -22.590403,-5.03105 -9.1002827,-5.031051 -9.1002827,-12.478978 0,-7.768534 9.9387907,-13.3668109 9.963453,-5.59827679 23.77418,-5.59827679 11.813104,0 20.247512,4.43916219 z"
         style="fill:#40ac5c"
         id="path13" />
      <path
         d="m 99.20075,10.479551 q 9.00163,0 15.907,4.143218 6.90536,4.118556 6.90536,9.519537 0,5.154361 -6.85604,8.829 -6.85604,3.67464 -16.498884,3.67464 -9.692171,0 -16.572872,-3.822612 -6.880702,-3.847274 -6.880702,-9.272916 0,-5.400981 7.028674,-9.223593 7.053335,-3.847274 16.967464,-3.847274 z m -0.73986,4.957065 q -7.990492,0 -7.990492,8.33576 0,7.916506 8.187788,7.916506 7.941164,0 7.941164,-7.891844 0,-8.360422 -8.13846,-8.360422 z"
         style="fill:#40ac5c"
         id="path15" />
      <path
         d="m 141.54543,0.14616811 q 2.91011,0 5.15436,1.45505869 2.2689,1.4550587 2.2689,3.3293717 0,1.8496509 -2.2689,3.3047096 -2.24425,1.4550587 -5.15436,1.4550587 -2.91012,0 -5.15437,-1.4303967 -2.24424,-1.4550587 -2.24424,-3.3293716 0,-1.898975 2.24424,-3.3293717 2.24425,-1.45505869 5.15437,-1.45505869 z m 7.42326,11.07324389 v 24.14411 q 0,3.649977 -0.59189,5.03105 -0.56722,1.381073 -2.68816,2.836131 -4.85841,3.354034 -11.78844,3.354034 -6.1655,0 -10.13609,-1.751003 -3.94592,-1.751003 -3.94592,-4.488486 0,-4.069232 7.74387,-4.069232 0.83851,0 2.6635,0.197296 -0.17263,1.134453 -0.22196,2.046947 -0.14797,2.762146 2.39222,2.762146 2.51552,0 2.51552,-3.55133 l 0.0247,-2.367553 V 17.952141 l -11.22122,-6.165503 z"
         style="fill:#40ac5c"
         id="path17" />
      <path
         d="m 168.87093,0.14616811 q 2.91012,0 5.15436,1.45505869 2.26891,1.4550587 2.26891,3.3293717 0,1.8496509 -2.26891,3.3047096 -2.24424,1.4550587 -5.15436,1.4550587 -2.91012,0 -5.15436,-1.4303967 -2.24424,-1.4550587 -2.24424,-3.3293716 0,-1.898975 2.24424,-3.3293717 2.24424,-1.45505869 5.15436,-1.45505869 z M 176.2942,11.219412 v 17.978607 l 9.37156,6.165503 h -32.94845 l 9.5442,-6.165503 V 17.976803 l -9.5442,-6.190165 z"
         style="fill:#40ac5c"
         id="path19" />
    </g>
    <g
       transform="scale(0.26458333)"
       id="text27085"
       style="font-size:40px;line-height:1.25;white-space:pre;shape-inside:url(#rect27087)" />
    <g
       transform="scale(0.26458333)"
       id="text28741"
       style="font-size:40px;line-height:1.25;white-space:pre;shape-inside:url(#rect28743)" />
  </g>
</svg>
