<?xml version="1.0" encoding="utf-8"?>
<!-- Generator: Adobe Illustrator 23.0.5, SVG Export Plug-In . SVG Version: 6.00 Build 0)  -->
<svg version="1.1" id="Слой_1" xmlns="http://www.w3.org/2000/svg" xmlns:xlink="http://www.w3.org/1999/xlink" x="0px" y="0px"
	 viewBox="0 0 150 58" style="enable-background:new 0 0 150 58;" xml:space="preserve">
<style type="text/css">
	.st0{fill:#3DAA3A;}
</style>
<g>
	<path class="st0" d="M35.51,19.55c-1.95,0-3.74,0.37-5.38,1.1c-1.64,0.74-3,1.8-4.07,3.17c-0.94-1.44-2.16-2.51-3.67-3.22
		c-1.51-0.7-3.22-1.05-5.13-1.05c-1.64,0-3.16,0.28-4.55,0.83c-1.39,0.55-2.59,1.38-3.6,2.49V20H0v27.26h9.56V33.73
		c0-2.04,0.44-3.57,1.31-4.58c0.87-1.01,2.04-1.51,3.52-1.51c2.75,0,4.13,1.86,4.13,5.58v14.03h9.56V33.73
		c0-2.04,0.44-3.57,1.31-4.58c0.87-1.01,2.03-1.51,3.47-1.51c1.31,0,2.32,0.45,3.05,1.36c0.72,0.9,1.08,2.31,1.08,4.22v14.03h9.56
		V31.67c0-4.06-1-7.09-2.99-9.1C41.54,20.55,38.87,19.55,35.51,19.55z"/>
	<rect x="81.44" y="20" class="st0" width="9.56" height="27.26"/>
	<path class="st0" d="M90.44,8.2c-1.07-0.92-2.48-1.38-4.22-1.38c-1.74,0-3.15,0.48-4.23,1.46c-1.07,0.97-1.61,2.18-1.61,3.62
		s0.54,2.65,1.61,3.62c1.08,0.97,2.48,1.46,4.23,1.46c1.74,0,3.15-0.5,4.22-1.49c1.08-0.99,1.61-2.24,1.61-3.75
		C92.05,10.31,91.52,9.13,90.44,8.2z"/>
	<polygon class="st0" points="119.06,25.58 119.06,20 94.77,20 94.77,27.09 107.04,27.09 94.42,41.63 94.42,47.26 119.57,47.26 
		119.57,40.12 106.44,40.12 	"/>
	<path class="st0" d="M150,33.68c0-2.92-0.65-5.44-1.93-7.57c-1.3-2.13-3.05-3.75-5.26-4.88c-2.22-1.12-4.68-1.68-7.4-1.68
		c-2.85,0-5.42,0.6-7.7,1.81c-2.28,1.21-4.06,2.88-5.36,5.01c-1.29,2.13-1.93,4.54-1.93,7.22c0,2.72,0.66,5.15,1.98,7.29
		c1.33,2.15,3.2,3.82,5.61,5.03c2.41,1.21,5.21,1.81,8.4,1.81c5.1,0,8.97-1.47,11.62-4.43l-5.03-5.23
		c-0.97,0.84-1.93,1.44-2.89,1.81c-0.96,0.37-2.09,0.55-3.4,0.55c-1.74,0-3.19-0.37-4.35-1.13c-1.16-0.75-1.94-1.83-2.34-3.24h19.82
		C149.95,34.54,150,33.75,150,33.68z M129.88,31.02c0.27-1.44,0.9-2.58,1.89-3.42c0.99-0.84,2.22-1.26,3.69-1.26
		c1.48,0,2.71,0.42,3.7,1.26c0.99,0.84,1.62,1.98,1.89,3.42H129.88z"/>
	<path class="st0" d="M69.7,44.86v2.4h7.06V35.81C74.56,40.04,72.14,42.93,69.7,44.86z"/>
	<path class="st0" d="M57.44,27.47c1.34-0.42,2.67-0.63,3.97-0.63c3.25,0,5.13,1.12,5.64,3.36c4.7,0.45,8.69,1.6,9.69,1.91
		l-0.02-1.09c-0.19-3.71-1.37-6.5-3.54-8.37c-2.38-2.06-5.84-3.1-10.36-3.1c-2.18,0-4.35,0.28-6.52,0.83
		c-2.16,0.55-4,1.33-5.51,2.34l3.22,6.49C54.96,28.46,56.1,27.88,57.44,27.47z"/>
	<path class="st0" d="M76.05,34.51c0.19-0.38,0.37-0.77,0.56-1.17c0,0-1.78-0.57-4.42-1.12c-1.45-0.3-3.17-0.59-5-0.78
		c-1.22-0.13-2.5-0.2-3.78-0.2c-6.17,0-12.47,1.8-13.88,8.72c0,0,4.04-3.84,12.07-3.87c0,0-9.78,3.36-11.61,6.95
		c0.17,1.25,4.31,4.26,9.66,4.26c3.12,0,6.65-1.03,10.05-4.03C71.93,41.28,74.1,38.45,76.05,34.51z"/>
</g>
</svg>