<?xml version="1.0" standalone="no"?>
<!DOCTYPE svg PUBLIC "-//W3C//DTD SVG 20010904//EN"
 "http://www.w3.org/TR/2001/REC-SVG-20010904/DTD/svg10.dtd">
<svg version="1.0" xmlns="http://www.w3.org/2000/svg"
 width="119.000000pt" height="77.000000pt" viewBox="0 0 119.000000 77.000000"
 preserveAspectRatio="xMidYMid meet">

<g transform="translate(0.000000,77.000000) scale(0.100000,-0.100000)"
fill="#000000" stroke="none">
<path d="M755 763 c-11 -3 -30 -15 -43 -26 -20 -19 -36 -22 -108 -22 -58 0
-87 -4 -93 -13 -4 -7 -31 -15 -60 -19 -29 -3 -58 -11 -64 -17 -7 -6 -43 -26
-80 -44 -38 -18 -90 -53 -116 -77 -27 -25 -56 -45 -65 -45 -9 0 -25 14 -34 31
-25 46 -62 89 -76 89 -10 0 -10 -13 3 -59 19 -70 33 -88 75 -99 26 -7 32 -14
34 -43 2 -19 -4 -74 -13 -124 -9 -50 -21 -117 -26 -150 -6 -33 -11 -64 -12
-69 -3 -15 46 -36 68 -30 17 4 20 14 20 65 1 56 3 62 43 102 l42 42 31 -38
c17 -20 36 -37 43 -37 14 0 31 -31 41 -75 9 -41 23 -55 54 -55 37 0 59 16 46
33 -5 8 -19 26 -29 41 -11 16 -20 46 -20 68 -1 40 0 41 36 42 l37 1 -3 -85
c-2 -47 -7 -93 -11 -102 -12 -30 67 -52 105 -28 12 7 12 12 -4 29 -20 22 -20
22 19 126 31 81 41 96 51 69 4 -10 33 -46 65 -78 50 -51 57 -63 52 -87 -4 -24
-2 -29 18 -33 30 -7 49 -9 72 -7 17 1 17 3 3 23 -9 12 -16 41 -16 63 0 27 -9
53 -29 83 -32 46 -53 125 -44 160 4 18 13 22 45 22 22 0 48 -5 59 -10 16 -9
19 -7 19 15 0 32 20 29 37 -6 17 -33 16 -70 -3 -97 -17 -24 -39 -29 -50 -10
-5 8 -2 9 10 5 13 -5 17 -2 14 11 -2 10 -14 18 -30 20 -55 7 -41 -79 16 -90
28 -6 75 12 95 35 7 9 19 34 26 54 10 27 18 37 31 35 26 -5 98 25 123 52 33
35 38 93 13 149 -11 25 -30 51 -43 57 l-22 13 21 -28 c16 -21 22 -41 22 -79
l-1 -51 -14 39 c-8 22 -28 53 -45 70 l-31 31 25 -49 c34 -65 35 -122 2 -137
-40 -19 -71 -4 -84 38 -6 21 -23 54 -37 73 -14 18 -25 38 -25 44 0 5 -9 19
-20 31 -11 12 -28 46 -38 76 -13 37 -26 58 -43 65 -35 17 -61 22 -84 17z"/>
</g>
</svg>
