<?xml version="1.0" encoding="UTF-8" standalone="no"?>
<svg
   xmlns:dc="http://purl.org/dc/elements/1.1/"
   xmlns:cc="http://creativecommons.org/ns#"
   xmlns:rdf="http://www.w3.org/1999/02/22-rdf-syntax-ns#"
   xmlns:svg="http://www.w3.org/2000/svg"
   xmlns="http://www.w3.org/2000/svg"
   xmlns:xlink="http://www.w3.org/1999/xlink"
   xmlns:sodipodi="http://sodipodi.sourceforge.net/DTD/sodipodi-0.dtd"
   xmlns:inkscape="http://www.inkscape.org/namespaces/inkscape"
   width="150mm"
   height="80mm"
   viewBox="0 0 150 80"
   version="1.1"
   id="svg8"
   inkscape:version="1.0.1 (3bc2e813f5, 2020-09-07)"
   sodipodi:docname="logoname.svg">
  <defs
     id="defs2">
    <rect
       x="55.498915"
       y="11.040316"
       width="9.0081119"
       height="26.571964"
       id="rect18" />
    <rect
       x="2.4966634"
       y="9.8196593"
       width="133.28239"
       height="47.417046"
       id="rect12" />
    <filter
       y="-0.25"
       height="1.5"
       inkscape:menu-tooltip="Darkens the edge with an inner blur and adds a flexible glow"
       inkscape:menu="Shadows and Glows"
       inkscape:label="Dark and Glow"
       style="color-interpolation-filters:sRGB;"
       id="filter138">
      <feGaussianBlur
         stdDeviation="5"
         result="result6"
         id="feGaussianBlur128" />
      <feComposite
         result="result8"
         in="SourceGraphic"
         operator="atop"
         in2="result6"
         id="feComposite130" />
      <feComposite
         result="result9"
         operator="over"
         in2="SourceAlpha"
         in="result8"
         id="feComposite132" />
      <feColorMatrix
         values="1 0 0 0 0 0 1 0 0 0 0 0 1 0 0 0 0 0 1 0 "
         result="result10"
         id="feColorMatrix134" />
      <feBlend
         in="result10"
         mode="normal"
         in2="result6"
         id="feBlend136" />
    </filter>
    <filter
       inkscape:collect="always"
       id="filter5833"
       x="-0.46711537"
       width="1.9342307"
       y="-0.26193675"
       height="1.5238734"
       color-interpolation-filters="sRGB">
      <feGaussianBlur
         inkscape:collect="always"
         stdDeviation="21.537181"
         id="feGaussianBlur5835" />
    </filter>
  </defs>
  <sodipodi:namedview
     id="base"
     pagecolor="#ffffff"
     bordercolor="#666666"
     borderopacity="1.0"
     inkscape:pageopacity="0.0"
     inkscape:pageshadow="2"
     inkscape:zoom="0.7"
     inkscape:cx="455.71752"
     inkscape:cy="275.3497"
     inkscape:document-units="mm"
     inkscape:current-layer="layer1"
     inkscape:document-rotation="0"
     showgrid="false"
     inkscape:window-width="1498"
     inkscape:window-height="1016"
     inkscape:window-x="2334"
     inkscape:window-y="154"
     inkscape:window-maximized="0" />
  <metadata
     id="metadata5">
    <rdf:RDF>
      <cc:Work
         rdf:about="">
        <dc:format>image/svg+xml</dc:format>
        <dc:type
           rdf:resource="http://purl.org/dc/dcmitype/StillImage" />
        <dc:title />
      </cc:Work>
    </rdf:RDF>
  </metadata>
  <g
     inkscape:label="Layer 1"
     inkscape:groupmode="layer"
     id="layer1">
    <text
       xml:space="preserve"
       id="text16"
       style="line-height:1.25;font-family:Ubuntu;font-size:16.93333333px;-inkscape-font-specification:'Ubuntu, Normal';white-space:pre;shape-inside:url(#rect18);" />
    <g
       inkscape:label="Layer 1"
       id="layer1-7"
       transform="translate(21.955819,5.4575197)">
      <g
         id="g6504"
         transform="matrix(0.27749854,0,0,0.28180623,19.668067,-2.9492179)">
        <path
           inkscape:connector-curvature="0"
           id="path9056-6-2-3-3-0-6"
           style="color:#000000;fill:#d5b04f"
           d="m 126.64849,5.22481 c -69.026318,0 -124.9643385,55.94296 -124.9643385,124.96436 0,69.02634 55.9429705,124.98291 124.9643385,124.98291 3.3405,0 6.6507,-0.12969 9.9252,-0.38692 C 72.190812,249.72683 21.515362,195.86913 21.515362,130.18607 c 0,-65.68306 50.67669,-119.52224 115.058328,-124.5805 -3.2743,-0.25726 -6.585,-0.38696 -9.9252,-0.38696 z" />
        <path
           style="fill:#c89c31;fill-rule:evenodd"
           inkscape:connector-curvature="0"
           id="path9058-2-2-3-4-1-7"
           d="m 108.63199,6.51878 c -7.9837,1.1533 -15.719658,3.06176 -23.139868,5.64952 5.29098,0.3127 11.60055,0.50011 18.399768,0.52239 6.8377,-2.47954 13.9483,-4.38855 21.2825,-5.64953 -4.799,-0.28763 -10.4441,-0.47132 -16.5424,-0.52238 z M 85.608512,20.83606 c -7.65673,0 -14.71972,0.21787 -20.50854,0.58043 -2.4666,1.39861 -4.87773,2.87275 -7.23634,4.43059 4.58189,0.50846 10.9449,0.8856 18.2642,1.06416 3.17804,-2.1693 6.44944,-4.20071 9.82863,-6.07518 -0.11714,-9e-5 -0.23081,0 -0.3482,0 z m -21.86319,14.35629 c -7.2382,0.0644 -13.81765,0.32738 -19.09632,0.71584 -1.60731,1.39935 -3.18738,2.83596 -4.72084,4.31456 4.72715,0.50915 11.27986,0.87898 18.76695,1.04478 2.13109,-2.10404 4.3397,-4.12759 6.61721,-6.07518 -0.52086,0.002 -1.05251,-0.004 -1.56719,0 z m -15.05219,14.31729 c -6.74599,0.06 -12.92735,0.2907 -18.01284,0.63844 -1.26017,1.5095 -2.46766,3.05545 -3.65669,4.62413 5.07064,0.45464 11.72005,0.77588 19.17372,0.88999 1.56174,-2.09784 3.16892,-4.15892 4.85622,-6.15256 -0.79037,-0.003 -1.5852,-0.007 -2.36035,0 z m -8.10683,14.31729 c -7.55953,0.0144 -14.51974,0.2322 -20.19898,0.59977 -0.97475,1.57177 -1.91886,3.16169 -2.82477,4.77891 5.26356,0.42057 11.95471,0.71206 19.38607,0.79323 1.15486,-2.09704 2.36778,-4.1505 3.63737,-6.17194 z m -11.55042,14.33648 c -5.84034,0 -11.33929,0.12845 -16.19384,0.34824 -0.80735,1.77529 -1.55748,3.57948 -2.28304,5.39804 5.38225,0.29025 11.69467,0.44499 18.47719,0.44499 0.39136,0 0.77249,8.2e-4 1.16087,0 0.82269,-2.08595 1.70123,-4.14256 2.63128,-6.17192 -1.24556,-0.0116 -2.5116,-0.0193 -3.79215,-0.0193 z m -9.11291,14.33647 c -4.41492,0 -8.61947,0.0832 -12.5181005,0.21282 -0.58985,1.87936 -1.12285,3.7911 -1.62521,5.7076 4.3356805,0.16612 9.1110605,0.27087 14.1433105,0.27087 1.91409,0 3.77914,-0.013 5.61083,-0.0387 0.53418,-2.05456 1.12594,-4.08252 1.76061,-6.09455 -2.37993,-0.0443 -4.84107,-0.058 -7.37131,-0.058 z M 9.0108815,106.83636 c -1.76903,0.0157 -3.46407,0.0587 -5.14648,0.0967 -0.37272,1.98015 -0.68921,3.96648 -0.96738,5.9784 3.09073,0.0774 6.3386,0.11609 9.7128405,0.11609 3.51335,0 6.89458,-0.0518 10.09918,-0.13544 0.27445,-1.98195 0.6011,-3.94996 0.96738,-5.90101 -3.48679,-0.10075 -7.19672,-0.15478 -11.06687,-0.15478 -1.21987,0 -2.41051,-0.0106 -3.5986705,0 z m 3.5986705,14.31728 c -3.6959305,0 -7.2536805,0.0432 -10.6025405,0.13543 -0.13775,1.95769 -0.22431,3.91951 -0.27086,5.90102 3.42903,0.0972 7.07537,0.15478 10.8730805,0.15478 3.10202,0 6.09023,-0.031 8.95814,-0.0967 0.0464,-2.01457 0.1302,-4.00784 0.27093,-5.99778 -2.94872,-0.0699 -6.02936,-0.0967 -9.22868,-0.0967 z m 0,14.33648 c -3.7686805,0 -7.3898905,0.0591 -10.7963105,0.15478 0.0851,1.97972 0.2108,3.94625 0.38694,5.90101 3.29264,0.0889 6.78439,0.13544 10.4087605,0.13544 3.27634,0 6.42962,-0.043 9.44166,-0.11609 -0.17856,-1.97847 -0.32102,-3.97448 -0.40633,-5.9784 -2.89089,-0.0669 -5.90547,-0.0967 -9.03553,-0.0967 z m 0,14.33647 c -3.2484305,0 -6.3763805,0.0442 -9.3642805,0.1161 0.3199,2.01488 0.68785,4.01614 1.10285,5.99778 2.65574,0.0558 5.41042,0.0774 8.2616105,0.0774 4.05905,0 7.93782,-0.0637 11.57022,-0.17413 -0.40571,-1.94456 -0.78864,-3.90514 -1.10278,-5.88169 -3.3104,-0.0898 -6.82153,-0.13544 -10.46694,-0.13544 z m -3.5986705,14.33648 c -0.90443,0.008 -1.74829,0.0247 -2.63129,0.0387 0.5821,2.06281 1.2122,4.11515 1.89607,6.13319 1.42226,0.0153 2.8646405,0.0193 4.3338905,0.0193 5.53524,0 10.75298,-0.11078 15.41994,-0.30956 -0.62605,-1.86134 -1.2211,-3.7308 -1.76066,-5.63021 -4.20536,-0.15451 -8.81636,-0.25152 -13.65916,-0.25152 -1.21986,0 -2.4105,-0.0106 -3.5986605,0 z m 13.6399605,14.31729 c -3.92822,0 -7.6914,0.0511 -11.22166,0.15478 0.84257,2.00188 1.7278,3.99256 2.67005,5.93977 2.74433,0.0599 5.59597,0.0967 8.55136,0.0967 3.94278,0 7.71741,-0.0504 11.26066,-0.15478 -0.94299,-1.9505 -1.82704,-3.93436 -2.67004,-5.93977 -2.75685,-0.0604 -5.62073,-0.0967 -8.59037,-0.0967 z m 3.65674,14.33647 c -2.67679,0 -5.27037,0.028 -7.77746,0.0774 1.20198,2.06863 2.47707,4.10339 3.79215,6.09456 1.30889,0.0129 2.63773,0.0193 3.98562,0.0193 5.62687,0 10.92943,-0.1239 15.65213,-0.32891 -1.21981,-1.85831 -2.39974,-3.74336 -3.52135,-5.66884 -3.78948,-0.12158 -7.86165,-0.19347 -12.13115,-0.19347 z m 16.42603,14.33649 c -5.10828,0 -9.94935,0.1 -14.33648,0.27086 1.56299,1.98616 3.19742,3.9179 4.87562,5.80431 3.01768,0.0734 6.17776,0.11608 9.46086,0.11608 3.60393,0 7.07475,-0.0476 10.35117,-0.13543 -1.7377,-1.95408 -3.41634,-3.95621 -5.0304,-6.01716 -1.73962,-0.0231 -3.5076,-0.0387 -5.32058,-0.0387 z m 9.11291,14.31727 c -3.61786,0 -7.10261,0.0469 -10.38954,0.13543 2.24643,2.09527 4.5689,4.10963 6.96516,6.0365 1.12637,0.009 2.26991,0.0191 3.42457,0.0191 5.77149,0 11.20493,-0.1139 16.01989,-0.32893 -2.27022,-1.84028 -4.48235,-3.75404 -6.61722,-5.74623 -3.00054,-0.0725 -6.14056,-0.11606 -9.4033,-0.11606 z m 22.83027,14.33649 c -5.13868,0 -10.00631,0.098 -14.41387,0.27087 3.38421,2.12688 6.87477,4.09998 10.46694,5.90102 1.29626,0.0126 2.61247,0.0191 3.94693,0.0191 5.49716,0 10.6824,-0.11333 15.32337,-0.30956 -3.51912,-1.78754 -6.95651,-3.74184 -10.27378,-5.843 -1.65319,-0.0208 -3.33115,-0.0387 -5.04977,-0.0387 z m 30.550098,14.3365 c -4.5963,0 -8.972938,0.0923 -13.001598,0.23216 10.936198,3.12763 22.497798,4.79821 34.438898,4.79821 2.7989,0 5.5664,-0.09 8.3198,-0.27086 0.3847,-0.0526 0.7539,-0.10023 1.1028,-0.1548 -8.456,-0.69844 -16.6768,-2.24836 -24.5719,-4.54664 -2.0447,-0.0322 -4.138,-0.0582 -6.2878,-0.0582 z" />
        <path
           inkscape:connector-curvature="0"
           id="path9060-8-05-9-8-9-2"
           style="color:#000000;fill:#eed175"
           d="m 256.94919,129.69896 c 0,69.02345 -55.9556,124.97901 -124.9791,124.97901 -69.023418,0 -124.9789885,-55.95556 -124.9789885,-124.97901 0,-69.02345 55.9555705,-124.97901 124.9789885,-124.97901 69.0235,0 124.9791,55.95556 124.9791,124.97901 z" />
        <path
           inkscape:connector-curvature="0"
           id="path9062-1-9-6-8-7-4"
           style="color:#000000;fill:#c89c31"
           d="m 253.79249,130.61824 c 0,67.2594 -54.5255,121.78488 -121.7849,121.78488 -67.259368,0 -121.784848,-54.52548 -121.784848,-121.78488 0,-67.25938 54.52548,-121.78486 121.784848,-121.78486 67.2594,0 121.7849,54.52548 121.7849,121.78486 z" />
        <path
           inkscape:connector-curvature="0"
           id="path9064-0-69-5-4-1-3"
           style="color:#000000;fill:#ebc859"
           d="m 249.86659,130.89982 c 0,65.11074 -52.7837,117.89438 -117.8944,117.89438 -65.110748,0 -117.894368,-52.78364 -117.894368,-117.89438 0,-65.11074 52.78362,-117.89436 117.894368,-117.89436 65.1107,0 117.8944,52.78362 117.8944,117.89436 z" />
        <path
           inkscape:connector-curvature="0"
           id="path9068-5-2-9-9-4-2"
           style="color:#000000;fill:#f7e587"
           d="m 203.48989,222.97262 c 51.8406,-39.39559 61.9435,-113.35574 22.5474,-165.19515 -10.6398,-14.0009 -23.8191,-24.94148 -38.3846,-32.69913 9.363,6.9986 17.9422,15.39271 25.3698,25.16623 42.7377,56.2383 31.8993,136.38723 -24.1972,179.01404 -5.4151,4.1152 -11.0532,7.72238 -16.8606,10.8446 11.0464,-3.96492 21.6854,-9.65092 31.5258,-17.12933 z" />
        <path
           inkscape:connector-curvature="0"
           id="rect7789-0-1-6"
           d="M 54.684152,208.84464 C 80.025832,144.01051 105.38412,79.18284 130.7154,14.344646 c -20.14533,-0.92905 -40.440028,3.73642 -58.062498,13.40625 -17.54754,44.857954 -35.09148,89.718324 -52.59375,134.593754 6.43355,19.13797 18.30859,36.16624 33.5625,49.21874 0.35417,-0.90625 0.70833,-1.8125 1.0625,-2.71875 z"
           style="opacity:0.600823;fill:#ffffff;fill-opacity:1;fill-rule:nonzero;stroke:none;filter:url(#filter5833)" />
      </g>
      <g
         style="fill:#ffffff;fill-rule:evenodd;stroke:#000000;stroke-linecap:round;stroke-linejoin:round"
         id="g100"
         transform="matrix(0.40728918,0,0,0.38056021,35.243596,12.963227)">
        <use
           xlink:href="#A"
           x="2.0829999"
           y="2.0829999"
           id="use78"
           width="100%"
           height="100%"
           transform="translate(-1.4647899,-8.3121225)" />
        <symbol
           id="A"
           overflow="visible">
          <g
             stroke-width="4.167"
             id="g84">
            <path
               d="M 63.023,44.288 59.919,39.226 C 54.642,30.372 40.257,8.705 39.93,8.299 37.534,5.153 34.451,3.507 31.305,5.903 28.159,8.278 30.447,11.34 32.267,15.674 L 46.684,45.866 52.459,57.741 37.834,46.268 a 7.09,7.09 0 0 0 -1.64,-1.356 c -0.842,-0.62 -1.839,-0.996 -2.881,-1.087 -1.257,-0.28 -2.564,-0.241 -3.802,0.114 l -20.05,6.354 a 12.53,12.53 0 0 0 -2.296,0.996 c -2.908,2.052 -3.848,2.708 -3.446,6.61 0.558,1.715 1.821,3.111 3.472,3.838 1.651,0.727 3.534,0.714 5.176,-0.034 l 18.158,-4.117 0.777,0.625 14.567,12.952 c -1.189,4.165 -2.626,8.256 -4.302,12.25 A 4.57,4.57 0 0 1 36.188,85.544 98.35,98.35 0 0 0 23.259,82.513 C 22.754,82.429 22.267,82.258 21.819,82.009 13.288,77.336 4.09,74.909 2.117,76.884 0.148,78.701 0.825,79.655 1.813,82.63 3.407,87.409 15.559,93.922 18.342,97.078 l 13.646,11.354 c 0,0 13.337,9.604 21.306,9.558 25.131,-0.138 39.479,-30.729 39.504,-38.583 0.013,-3.421 0.4,-7.552 0.4,-7.552 a 39.67,39.67 0 0 0 -1.621,-6.263 l -0.021,-0.013 c 0.051,-0.37 0.071,-0.743 0.06,-1.117 L 89.19,22.297 a 10.98,10.98 0 0 0 -1.16,-4.533 c -0.883,-2.115 -3.061,-3.389 -5.337,-3.121 -3.4,0.39 -4.494,3.908 -4.742,7.881 L 76.772,39.378 C 73.888,27.882 66.738,5.211 66.555,4.742 66.2,3.21 65.236,1.89 63.887,1.083 A 5.79,5.79 0 0 0 59.4,0.465 c -3.717,1.402 -4.208,5.604 -3.625,9.292 l 2.033,13.933 2.113,15.521"
               fill="#fcea2b"
               stroke="#fcea2b"
               fill-rule="nonzero"
               id="path80" />
            <path
               d="m 45.317,71.502 c -1.812,5.24 -2.333,9.056 -3.75,11.667 A 4.57,4.57 0 0 1 36.188,85.3 98.33,98.33 0 0 0 23.259,82.269 4.48,4.48 0 0 1 21.819,81.765 C 13.288,77.092 4.111,74.665 2.115,76.64 a 4.89,4.89 0 0 0 -1.617,6.175 c 1.594,4.779 15.058,10.862 17.844,14.017 L 30.53,109.02 c 0,0 14.525,10.242 22.494,10.198 C 78.155,119.06 93.757,86.293 93.784,78.439 93.765,76.145 93.57,73.856 93.203,71.591 92.834,69.463 92.292,67.368 91.582,65.329 M 30.249,58.069 12.54,62.3 C 10.756,62.971 8.777,62.901 7.044,62.106 A 7.15,7.15 0 0 1 3.313,58.067 c -0.402,-3.923 0.962,-5.01 3.875,-7.083 0.73,-0.408 1.499,-0.741 2.296,-0.996 l 20.05,-6.354 c 1.238,-0.355 2.545,-0.395 3.802,-0.115 m 12,27.983 -14.788,-13.275 m 0.735,-14.913 a 9.03,9.03 0 0 1 4.894,1.315 c 0.612,0.367 1.164,0.824 1.64,1.356 L 55.171,59.931 M 46.775,46.041 31.284,15.388 c -1.823,-4.329 -3.125,-7.388 0,-9.765 3.125,-2.396 6.25,-0.75 8.625,2.396 0.325,0.427 17.813,27.117 23.092,35.971 v 0.021 m 16.396,5.1 C 76.513,37.615 66.74,4.948 66.557,4.479 66.202,2.947 65.238,1.627 63.889,0.82 62.54,0.013 60.92,-0.21 59.402,0.202 55.685,1.604 55.194,5.827 55.777,9.494 L 57.81,23.427 M 77.952,22.26 c 0.25,-3.973 1.342,-7.492 4.742,-7.881 2.276,-0.268 4.455,1.006 5.337,3.121 0.708,1.41 1.104,2.957 1.16,4.533 L 91.619,64.2 c 0.011,0.373 -0.009,0.747 -0.06,1.117 M 61.857,42.204 69.149,53.687"
               fill="none"
               id="path82" />
          </g>
        </symbol>
      </g>
    </g>
  </g>
</svg>
